<svg width="91" height="23" viewBox="0 0 91 23" fill="none" xmlns="http://www.w3.org/2000/svg">
<path d="M12.1324 0H8.97794L17.5515 18.3561H0L1.45588 21H22L12.1324 0Z" fill="white"/>
<path d="M2.91176 16.3921L1.61765 13.8237H9.78676L5.98529 5.81655L7.84559 3.17266L14.1544 16.3921H2.91176Z" fill="white"/>
<path d="M12.1324 0H8.97794L17.5515 18.3561H0L1.45588 21H22L12.1324 0Z" stroke="white"/>
<path d="M2.91176 16.3921L1.61765 13.8237H9.78676L5.98529 5.81655L7.84559 3.17266L14.1544 16.3921H2.91176Z" stroke="white"/>
<path d="M25.8477 6.84224H30.7624L34.1431 15.0809H34.3136L37.6942 6.84224H42.609V21.3877H38.7454V12.9786H38.6317L35.3931 21.2741H33.0636L29.8249 12.9218H29.7113V21.3877H25.8477V6.84224ZM44.4805 21.3877V6.84224H50.7873C51.8952 6.84224 52.8256 6.99139 53.5785 7.28968C54.3361 7.58798 54.9066 8.00938 55.2901 8.55389C55.6784 9.0984 55.8725 9.73997 55.8725 10.4786C55.8725 11.0136 55.7541 11.5013 55.5174 11.9417C55.2854 12.382 54.9587 12.7513 54.5373 13.0496C54.1159 13.3432 53.6235 13.5468 53.06 13.6604V13.8025C53.685 13.8261 54.2532 13.9848 54.7646 14.2783C55.2759 14.5671 55.6831 14.9672 55.9862 15.4786C56.2892 15.9852 56.4407 16.5818 56.4407 17.2684C56.4407 18.0638 56.2324 18.7717 55.8157 19.392C55.4038 20.0122 54.8166 20.4999 54.0543 20.855C53.292 21.2101 52.3829 21.3877 51.3271 21.3877H44.4805ZM48.4293 18.2343H50.2759C50.9388 18.2343 51.436 18.1112 51.7674 17.865C52.0988 17.614 52.2646 17.2447 52.2646 16.757C52.2646 16.4161 52.1864 16.1273 52.0302 15.8905C51.8739 15.6538 51.6514 15.4739 51.3626 15.3508C51.0785 15.2277 50.7352 15.1661 50.3327 15.1661H48.4293V18.2343ZM48.4293 12.7229H50.0487C50.3943 12.7229 50.6997 12.6685 50.9648 12.5596C51.23 12.4507 51.436 12.2944 51.5827 12.0908C51.7343 11.8825 51.81 11.6292 51.81 11.3309C51.81 10.8811 51.649 10.5378 51.3271 10.301C51.0051 10.0596 50.5979 9.93883 50.1055 9.93883H48.4293V12.7229ZM61.6183 21.3877H57.3569L62.158 6.84224H67.5558L72.3569 21.3877H68.0955L64.9137 10.8479H64.8001L61.6183 21.3877ZM60.8228 15.6491H68.8342V18.6036H60.8228V15.6491ZM73.7578 21.3877V6.84224H80.0362C81.1158 6.84224 82.0604 7.03874 82.87 7.43173C83.6797 7.82472 84.3094 8.39054 84.7592 9.12917C85.209 9.86781 85.4339 10.7532 85.4339 11.7854C85.4339 12.8271 85.2019 13.7054 84.7379 14.4204C84.2786 15.1353 83.6323 15.6751 82.799 16.0397C81.9704 16.4043 81.0021 16.5866 79.8942 16.5866H76.1442V13.5184H79.0987C79.5627 13.5184 79.9581 13.4616 80.2848 13.3479C80.6162 13.2296 80.8696 13.0425 81.0447 12.7868C81.2247 12.5312 81.3146 12.1974 81.3146 11.7854C81.3146 11.3688 81.2247 11.0302 81.0447 10.7698C80.8696 10.5046 80.6162 10.3105 80.2848 10.1874C79.9581 10.0596 79.5627 9.99565 79.0987 9.99565H77.7067V21.3877H73.7578ZM82.2805 14.7116L85.9169 21.3877H81.6271L78.076 14.7116H82.2805Z" fill="white"/>
</svg>
