<svg width="276" height="45" viewBox="0 0 276 45" fill="none" xmlns="http://www.w3.org/2000/svg">
<path d="M22.9559 1H17.5074L32.3162 35.0899H2L4.51471 40H40L22.9559 1Z" fill="white"/>
<path d="M7.02941 31.4424L4.79412 26.6727H18.9044L12.3382 11.8022L15.5515 6.89209L26.4485 31.4424H7.02941Z" fill="white"/>
<path d="M22.9559 1H17.5074L32.3162 35.0899H2L4.51471 40H40L22.9559 1Z" stroke="white" stroke-width="2"/>
<path d="M7.02941 31.4424L4.79412 26.6727H18.9044L12.3382 11.8022L15.5515 6.89209L26.4485 31.4424H7.02941Z" stroke="white" stroke-width="2"/>
<path d="M49.8867 9.81818H58.7333L64.8185 24.6477H65.1254L71.2106 9.81818H80.0572V36H73.1026V20.8636H72.8981L67.0685 35.7955H62.8754L57.0458 20.7614H56.8413V36H49.8867V9.81818ZM83.4258 36V9.81818H94.7781C96.7724 9.81818 98.4471 10.0866 99.8022 10.6236C101.166 11.1605 102.193 11.919 102.883 12.8991C103.582 13.8793 103.931 15.0341 103.931 16.3636C103.931 17.3267 103.718 18.2045 103.292 18.9972C102.875 19.7898 102.287 20.4545 101.528 20.9915C100.77 21.5199 99.8832 21.8864 98.869 22.0909V22.3466C99.994 22.3892 101.017 22.6747 101.937 23.2031C102.858 23.723 103.591 24.4432 104.136 25.3636C104.681 26.2756 104.954 27.3494 104.954 28.5852C104.954 30.017 104.579 31.2912 103.829 32.4077C103.088 33.5241 102.031 34.402 100.659 35.0412C99.2866 35.6804 97.6502 36 95.7496 36H83.4258ZM90.5337 30.3239H93.8576C95.0508 30.3239 95.9457 30.1023 96.5423 29.6591C97.1388 29.2074 97.4371 28.5426 97.4371 27.6648C97.4371 27.0511 97.2965 26.5312 97.0153 26.1051C96.734 25.679 96.3335 25.3551 95.8136 25.1335C95.3022 24.9119 94.6843 24.8011 93.9599 24.8011H90.5337V30.3239ZM90.5337 20.4034H93.4485C94.0707 20.4034 94.6204 20.3054 95.0977 20.1094C95.5749 19.9134 95.9457 19.6321 96.2099 19.2656C96.4826 18.8906 96.619 18.4347 96.619 17.8977C96.619 17.0881 96.3292 16.4702 95.7496 16.044C95.1701 15.6094 94.4371 15.392 93.5508 15.392H90.5337V20.4034ZM114.274 36H106.603L115.245 9.81818H124.961L133.603 36H125.933L120.206 17.0284H120.001L114.274 36ZM112.842 25.6705H127.262V30.9886H112.842V25.6705ZM136.125 36V9.81818H147.426C149.369 9.81818 151.07 10.1719 152.527 10.8793C153.984 11.5866 155.118 12.6051 155.928 13.9347C156.737 15.2642 157.142 16.858 157.142 18.7159C157.142 20.5909 156.724 22.1719 155.889 23.4588C155.063 24.7457 153.899 25.7173 152.399 26.3736C150.908 27.0298 149.165 27.358 147.17 27.358H140.42V21.8352H145.739C146.574 21.8352 147.286 21.733 147.874 21.5284C148.47 21.3153 148.926 20.9787 149.241 20.5185C149.565 20.0582 149.727 19.4574 149.727 18.7159C149.727 17.9659 149.565 17.3565 149.241 16.8878C148.926 16.4105 148.47 16.0611 147.874 15.8395C147.286 15.6094 146.574 15.4943 145.739 15.4943H143.233V36H136.125ZM151.466 23.983L158.011 36H150.29L143.898 23.983H151.466ZM164.109 36.4091C163.121 36.4091 162.273 36.0639 161.565 35.3736C160.866 34.6747 160.521 33.8267 160.53 32.8295C160.521 31.858 160.866 31.027 161.565 30.3366C162.273 29.6463 163.121 29.3011 164.109 29.3011C165.047 29.3011 165.874 29.6463 166.589 30.3366C167.314 31.027 167.68 31.858 167.689 32.8295C167.68 33.4943 167.506 34.0994 167.165 34.6449C166.832 35.1818 166.398 35.6122 165.861 35.9361C165.324 36.2514 164.74 36.4091 164.109 36.4091ZM195.865 19.6364H188.655C188.604 19.0398 188.467 18.4986 188.246 18.0128C188.033 17.527 187.734 17.1094 187.351 16.7599C186.976 16.402 186.52 16.1293 185.983 15.9418C185.446 15.7457 184.837 15.6477 184.155 15.6477C182.962 15.6477 181.952 15.9375 181.125 16.517C180.307 17.0966 179.685 17.9276 179.259 19.0099C178.841 20.0923 178.632 21.392 178.632 22.9091C178.632 24.5114 178.845 25.8537 179.271 26.9361C179.706 28.0099 180.332 28.8196 181.151 29.3651C181.969 29.902 182.953 30.1705 184.104 30.1705C184.76 30.1705 185.348 30.0895 185.868 29.9276C186.388 29.7571 186.839 29.5142 187.223 29.1989C187.607 28.8835 187.918 28.5043 188.156 28.0611C188.403 27.6094 188.57 27.1023 188.655 26.5398L195.865 26.5909C195.78 27.6989 195.469 28.8281 194.932 29.9787C194.395 31.1207 193.632 32.1776 192.643 33.1491C191.663 34.1122 190.449 34.8878 189 35.4759C187.551 36.0639 185.868 36.358 183.95 36.358C181.547 36.358 179.391 35.8423 177.482 34.8111C175.581 33.7798 174.077 32.2628 172.969 30.2599C171.869 28.2571 171.32 25.8068 171.32 22.9091C171.32 19.9943 171.882 17.5398 173.007 15.5455C174.132 13.5426 175.649 12.0298 177.558 11.0071C179.467 9.97585 181.598 9.46023 183.95 9.46023C185.604 9.46023 187.125 9.68608 188.514 10.1378C189.903 10.5895 191.122 11.25 192.17 12.1193C193.219 12.9801 194.063 14.0412 194.702 15.3026C195.341 16.5639 195.729 18.0085 195.865 19.6364ZM224.453 22.9091C224.453 25.8239 223.887 28.2827 222.753 30.2855C221.62 32.2798 220.09 33.7926 218.164 34.8239C216.238 35.8466 214.09 36.358 211.721 36.358C209.334 36.358 207.178 35.8423 205.252 34.8111C203.334 33.7713 201.809 32.2543 200.675 30.2599C199.55 28.2571 198.988 25.8068 198.988 22.9091C198.988 19.9943 199.55 17.5398 200.675 15.5455C201.809 13.5426 203.334 12.0298 205.252 11.0071C207.178 9.97585 209.334 9.46023 211.721 9.46023C214.09 9.46023 216.238 9.97585 218.164 11.0071C220.09 12.0298 221.62 13.5426 222.753 15.5455C223.887 17.5398 224.453 19.9943 224.453 22.9091ZM217.141 22.9091C217.141 21.3409 216.932 20.0199 216.515 18.946C216.105 17.8636 215.496 17.0455 214.686 16.4915C213.885 15.929 212.897 15.6477 211.721 15.6477C210.544 15.6477 209.551 15.929 208.742 16.4915C207.941 17.0455 207.331 17.8636 206.914 18.946C206.505 20.0199 206.3 21.3409 206.3 22.9091C206.3 24.4773 206.505 25.8026 206.914 26.8849C207.331 27.9588 207.941 28.777 208.742 29.3395C209.551 29.8935 210.544 30.1705 211.721 30.1705C212.897 30.1705 213.885 29.8935 214.686 29.3395C215.496 28.777 216.105 27.9588 216.515 26.8849C216.932 25.8026 217.141 24.4773 217.141 22.9091ZM237.816 36H227.742V9.81818H237.714C240.407 9.81818 242.734 10.3423 244.694 11.3906C246.663 12.4304 248.18 13.9304 249.245 15.8906C250.319 17.8423 250.856 20.1818 250.856 22.9091C250.856 25.6364 250.323 27.9801 249.258 29.9403C248.192 31.892 246.684 33.392 244.732 34.4403C242.781 35.4801 240.475 36 237.816 36ZM234.85 29.9659H237.56C238.856 29.9659 239.96 29.7571 240.871 29.3395C241.792 28.9219 242.491 28.2017 242.968 27.179C243.454 26.1562 243.697 24.733 243.697 22.9091C243.697 21.0852 243.45 19.6619 242.955 18.6392C242.469 17.6165 241.754 16.8963 240.808 16.4787C239.87 16.0611 238.719 15.8523 237.356 15.8523H234.85V29.9659ZM254.145 36V9.81818H273.014V15.5455H261.252V20.0455H272.042V25.7727H261.252V30.2727H272.963V36H254.145Z" fill="white"/>
</svg>
