<svg width="1380" height="462" viewBox="0 0 1380 462" fill="none" xmlns="http://www.w3.org/2000/svg">
<path d="M418.698 171.25H492.42L543.13 294.829H545.687L596.397 171.25H670.119V389.432H612.164V263.295H610.46L561.88 387.727H526.937L478.357 262.443H476.653V389.432H418.698V171.25ZM698.19 389.432V171.25H792.793C809.412 171.25 823.368 173.487 834.661 177.961C846.024 182.436 854.582 188.757 860.335 196.925C866.159 205.092 869.071 214.716 869.071 225.795C869.071 233.821 867.296 241.136 863.744 247.741C860.264 254.346 855.364 259.886 849.043 264.361C842.722 268.764 835.335 271.818 826.884 273.523V275.653C836.259 276.008 844.781 278.388 852.452 282.791C860.122 287.123 866.23 293.125 870.776 300.795C875.321 308.395 877.594 317.344 877.594 327.642C877.594 339.574 874.469 350.192 868.219 359.496C862.04 368.8 853.233 376.115 841.798 381.442C830.364 386.768 816.727 389.432 800.889 389.432H698.19ZM757.423 342.131H785.122C795.065 342.131 802.523 340.284 807.494 336.591C812.466 332.827 814.952 327.287 814.952 319.971C814.952 314.858 813.78 310.525 811.436 306.974C809.092 303.423 805.754 300.724 801.422 298.878C797.161 297.031 792.011 296.108 785.975 296.108H757.423V342.131ZM757.423 259.46H781.713C786.898 259.46 791.479 258.643 795.456 257.01C799.433 255.376 802.523 253.032 804.725 249.979C806.997 246.854 808.134 243.054 808.134 238.579C808.134 231.832 805.719 226.683 800.889 223.132C796.06 219.51 789.952 217.699 782.565 217.699H757.423V259.46ZM955.257 389.432H891.337L963.354 171.25H1044.32L1116.34 389.432H1052.42L1004.69 231.335H1002.98L955.257 389.432ZM943.325 303.352H1063.5V347.67H943.325V303.352ZM1137.35 389.432V171.25H1231.53C1247.72 171.25 1261.89 174.197 1274.03 180.092C1286.18 185.987 1295.62 194.474 1302.37 205.554C1309.12 216.633 1312.49 229.915 1312.49 245.398C1312.49 261.023 1309.01 274.197 1302.05 284.922C1295.16 295.646 1285.47 303.743 1272.97 309.211C1260.54 314.68 1246.02 317.415 1229.4 317.415H1173.15V271.392H1217.46C1224.42 271.392 1230.35 270.54 1235.26 268.835C1240.23 267.059 1244.03 264.254 1246.65 260.419C1249.35 256.584 1250.7 251.577 1250.7 245.398C1250.7 239.148 1249.35 234.069 1246.65 230.163C1244.03 226.186 1240.23 223.274 1235.26 221.427C1230.35 219.51 1224.42 218.551 1217.46 218.551H1196.58V389.432H1137.35ZM1265.19 289.29L1319.74 389.432H1255.39L1202.12 289.29H1265.19Z" fill="white"/>
<path d="M387.785 387.768L0 389.57L20.7422 347.603L323.109 346.197L170.874 43.8438L192.544 0L387.785 387.768Z" fill="white"/>
<path d="M277.92 315.638H32.2104L50.7026 278.368L215.117 277.605L132.499 113.519L154.866 68.4426L277.92 315.638Z" fill="white"/>
</svg>
