<svg width="2408" height="461" viewBox="0 0 2408 461" fill="none" xmlns="http://www.w3.org/2000/svg">
<path d="M400.062 170.818H473.784L524.494 294.398H527.051L577.761 170.818H651.483V389H593.528V262.864H591.824L543.244 387.295H508.301L459.722 262.011H458.017V389H400.062V170.818ZM679.555 389V170.818H774.157C790.776 170.818 804.732 173.055 816.025 177.53C827.388 182.004 835.947 188.325 841.7 196.493C847.523 204.661 850.435 214.284 850.435 225.364C850.435 233.389 848.66 240.705 845.109 247.31C841.629 253.915 836.728 259.455 830.407 263.929C824.086 268.332 816.7 271.386 808.248 273.091V275.222C817.623 275.577 826.146 277.956 833.816 282.359C841.487 286.692 847.594 292.693 852.14 300.364C856.685 307.963 858.958 316.912 858.958 327.21C858.958 339.142 855.833 349.76 849.583 359.064C843.404 368.368 834.597 375.683 823.163 381.01C811.728 386.337 798.092 389 782.254 389H679.555ZM738.788 341.699H766.487C776.43 341.699 783.887 339.852 788.859 336.159C793.83 332.395 796.316 326.855 796.316 319.54C796.316 314.426 795.144 310.094 792.8 306.543C790.457 302.991 787.119 300.293 782.786 298.446C778.525 296.599 773.376 295.676 767.339 295.676H738.788V341.699ZM738.788 259.028H763.077C768.262 259.028 772.843 258.212 776.82 256.578C780.798 254.945 783.887 252.601 786.089 249.547C788.362 246.422 789.498 242.622 789.498 238.148C789.498 231.401 787.083 226.251 782.254 222.7C777.424 219.078 771.316 217.267 763.93 217.267H738.788V259.028ZM936.621 389H872.701L944.718 170.818H1025.68L1097.7 389H1033.78L986.053 230.903H984.349L936.621 389ZM924.69 302.92H1044.86V347.239H924.69V302.92ZM1118.71 389V170.818H1212.89C1229.08 170.818 1243.25 173.766 1255.4 179.661C1267.54 185.555 1276.99 194.043 1283.74 205.122C1290.48 216.202 1293.86 229.483 1293.86 244.966C1293.86 260.591 1290.38 273.766 1283.42 284.49C1276.53 295.214 1266.83 303.311 1254.33 308.78C1241.9 314.249 1227.38 316.983 1210.76 316.983H1154.51V270.96H1198.83C1205.79 270.96 1211.72 270.108 1216.62 268.403C1221.59 266.628 1225.39 263.822 1228.02 259.987C1230.72 256.152 1232.07 251.145 1232.07 244.966C1232.07 238.716 1230.72 233.638 1228.02 229.732C1225.39 225.754 1221.59 222.842 1216.62 220.996C1211.72 219.078 1205.79 218.119 1198.83 218.119H1177.95V389H1118.71ZM1246.56 288.858L1301.1 389H1236.75L1183.49 288.858H1246.56ZM1351.92 392.409C1343.68 392.409 1336.61 389.533 1330.72 383.78C1324.89 377.956 1322.02 370.889 1322.09 362.58C1322.02 354.483 1324.89 347.558 1330.72 341.805C1336.61 336.053 1343.68 333.176 1351.92 333.176C1359.73 333.176 1366.62 336.053 1372.59 341.805C1378.62 347.558 1381.68 354.483 1381.75 362.58C1381.68 368.119 1380.22 373.162 1377.38 377.707C1374.61 382.182 1370.99 385.768 1366.51 388.467C1362.04 391.095 1357.17 392.409 1351.92 392.409ZM1659.32 252.636H1599.24C1598.81 247.665 1597.67 243.155 1595.83 239.107C1594.05 235.058 1591.57 231.578 1588.37 228.666C1585.25 225.683 1581.45 223.411 1576.97 221.848C1572.5 220.214 1567.42 219.398 1561.74 219.398C1551.79 219.398 1543.38 221.812 1536.49 226.642C1529.67 231.472 1524.49 238.396 1520.93 247.416C1517.45 256.436 1515.71 267.267 1515.71 279.909C1515.71 293.261 1517.49 304.447 1521.04 313.467C1524.66 322.416 1529.88 329.163 1536.7 333.709C1543.52 338.183 1551.72 340.42 1561.31 340.42C1566.78 340.42 1571.68 339.746 1576.01 338.396C1580.34 336.976 1584.11 334.952 1587.31 332.324C1590.5 329.696 1593.09 326.536 1595.08 322.842C1597.14 319.078 1598.53 314.852 1599.24 310.165L1659.32 310.591C1658.61 319.824 1656.02 329.234 1651.55 338.822C1647.07 348.339 1640.71 357.146 1632.48 365.243C1624.31 373.268 1614.19 379.732 1602.11 384.632C1590.04 389.533 1576.01 391.983 1560.03 391.983C1540 391.983 1522.04 387.686 1506.13 379.092C1490.29 370.499 1477.75 357.857 1468.52 341.166C1459.36 324.476 1454.78 304.057 1454.78 279.909C1454.78 255.619 1459.46 235.165 1468.84 218.545C1478.21 201.855 1490.86 189.249 1506.77 180.726C1522.67 172.132 1540.43 167.835 1560.03 167.835C1573.81 167.835 1586.49 169.717 1598.06 173.482C1609.64 177.246 1619.8 182.75 1628.53 189.994C1637.27 197.168 1644.3 206.01 1649.63 216.521C1654.95 227.033 1658.19 239.071 1659.32 252.636ZM1897.56 279.909C1897.56 304.199 1892.84 324.689 1883.39 341.379C1873.94 357.999 1861.2 370.605 1845.14 379.199C1829.09 387.722 1811.2 391.983 1791.45 391.983C1771.56 391.983 1753.6 387.686 1737.54 379.092C1721.56 370.428 1708.85 357.786 1699.41 341.166C1690.03 324.476 1685.34 304.057 1685.34 279.909C1685.34 255.619 1690.03 235.165 1699.41 218.545C1708.85 201.855 1721.56 189.249 1737.54 180.726C1753.6 172.132 1771.56 167.835 1791.45 167.835C1811.2 167.835 1829.09 172.132 1845.14 180.726C1861.2 189.249 1873.94 201.855 1883.39 218.545C1892.84 235.165 1897.56 255.619 1897.56 279.909ZM1836.62 279.909C1836.62 266.841 1834.88 255.832 1831.4 246.884C1827.99 237.864 1822.91 231.045 1816.17 226.429C1809.49 221.741 1801.25 219.398 1791.45 219.398C1781.65 219.398 1773.38 221.741 1766.63 226.429C1759.95 231.045 1754.87 237.864 1751.39 246.884C1747.99 255.832 1746.28 266.841 1746.28 279.909C1746.28 292.977 1747.99 304.021 1751.39 313.041C1754.87 321.99 1759.95 328.808 1766.63 333.496C1773.38 338.112 1781.65 340.42 1791.45 340.42C1801.25 340.42 1809.49 338.112 1816.17 333.496C1822.91 328.808 1827.99 321.99 1831.4 313.041C1834.88 304.021 1836.62 292.977 1836.62 279.909ZM2008.91 389H1924.96V170.818H2008.06C2030.5 170.818 2049.89 175.186 2066.23 183.922C2082.64 192.587 2095.28 205.087 2104.16 221.422C2113.1 237.686 2117.58 257.182 2117.58 279.909C2117.58 302.636 2113.14 322.168 2104.26 338.503C2095.38 354.767 2082.81 367.267 2066.55 376.003C2050.28 384.668 2031.07 389 2008.91 389ZM1984.2 338.716H2006.78C2017.58 338.716 2026.78 336.976 2034.38 333.496C2042.05 330.016 2047.87 324.014 2051.85 315.491C2055.9 306.969 2057.92 295.108 2057.92 279.909C2057.92 264.71 2055.86 252.849 2051.74 244.327C2047.69 235.804 2041.73 229.803 2033.84 226.322C2026.03 222.842 2016.44 221.102 2005.08 221.102H1984.2V338.716ZM2144.98 389V170.818H2302.23V218.545H2204.22V256.045H2294.13V303.773H2204.22V341.273H2301.8V389H2144.98Z" fill="white"/>
<path d="M387.785 387.768L0 389.57L20.7422 347.603L323.109 346.197L170.874 43.8438L192.544 0L387.785 387.768Z" fill="white"/>
<path d="M277.92 315.638H32.2104L50.7026 278.368L215.117 277.605L132.499 113.519L154.866 68.4426L277.92 315.638Z" fill="white"/>
</svg>
