<svg width="380" height="439" viewBox="0 0 380 439" fill="none" xmlns="http://www.w3.org/2000/svg">
<g clip-path="url(#clip0_765_38)">
<rect width="380" height="439" rx="9" fill="url(#paint0_linear_765_38)"/>
<g filter="url(#filter0_d_765_38)">
<path d="M36 52C36 43.1634 43.1634 36 52 36H380V439H36V52Z" fill="#0D0D0F"/>
</g>
<circle cx="55" cy="52" r="5" fill="#FF0000"/>
<circle cx="73" cy="52" r="5" fill="#FFDD00"/>
<circle cx="91" cy="52" r="5" fill="#3B712C"/>
<line x1="41" y1="64.5" x2="474" y2="64.5" stroke="#1F1F21"/>
<path d="M182.875 58H180.97V55.4219H174.276V58H172.372V52.7485C172.372 51.9819 172.503 51.2764 172.767 50.6318C173.031 49.9873 173.397 49.4331 173.866 48.9692C174.334 48.5054 174.889 48.144 175.528 47.8853C176.168 47.6265 176.866 47.4971 177.623 47.4971H181.915C182.047 47.4971 182.171 47.5215 182.289 47.5703C182.406 47.6191 182.508 47.6875 182.596 47.7754C182.684 47.8633 182.752 47.9658 182.801 48.083C182.85 48.2002 182.875 48.3247 182.875 48.4565V58ZM174.276 53.5176H180.97V49.4014H177.623C177.564 49.4014 177.44 49.4111 177.25 49.4307C177.064 49.4453 176.847 49.4868 176.598 49.5552C176.354 49.6235 176.095 49.7285 175.821 49.8701C175.548 50.0117 175.296 50.207 175.067 50.4561C174.837 50.7051 174.647 51.0176 174.496 51.3936C174.349 51.7646 174.276 52.2163 174.276 52.7485V53.5176ZM193.568 55.3267C193.568 55.6538 193.526 55.9492 193.443 56.2129C193.36 56.4717 193.25 56.7012 193.114 56.9014C192.977 57.0967 192.818 57.2651 192.638 57.4067C192.457 57.5435 192.267 57.6558 192.066 57.7437C191.871 57.8315 191.673 57.8975 191.473 57.9414C191.273 57.9805 191.083 58 190.902 58H187.467V56.0957H190.902C191.156 56.0957 191.346 56.0298 191.473 55.8979C191.6 55.7661 191.664 55.5757 191.664 55.3267V52.7632C191.664 52.4995 191.598 52.3042 191.466 52.1772C191.339 52.0503 191.151 51.9868 190.902 51.9868H187.481C187.223 51.9868 187.027 52.0527 186.896 52.1846C186.764 52.3115 186.698 52.4995 186.698 52.7485V60.4756H184.793V52.7485C184.793 52.4214 184.835 52.1284 184.918 51.8696C185.001 51.6108 185.111 51.3838 185.248 51.1885C185.389 50.9883 185.55 50.8198 185.731 50.6831C185.912 50.5415 186.1 50.4268 186.295 50.3389C186.495 50.251 186.695 50.1875 186.896 50.1484C187.101 50.1045 187.291 50.0825 187.467 50.0825H190.902C191.229 50.0825 191.522 50.124 191.781 50.207C192.04 50.29 192.267 50.3999 192.462 50.5366C192.662 50.6733 192.831 50.832 192.967 51.0127C193.109 51.1934 193.224 51.3838 193.312 51.584C193.399 51.7793 193.463 51.9771 193.502 52.1772C193.546 52.3774 193.568 52.5679 193.568 52.7485V55.3267ZM202.123 51.9868H197.838C197.579 51.9868 197.384 52.0527 197.252 52.1846C197.12 52.3115 197.054 52.4995 197.054 52.7485V58H195.15V52.7485C195.15 52.4214 195.191 52.1284 195.274 51.8696C195.357 51.6108 195.467 51.3838 195.604 51.1885C195.746 50.9883 195.907 50.8198 196.087 50.6831C196.268 50.5415 196.456 50.4268 196.651 50.3389C196.852 50.251 197.052 50.1875 197.252 50.1484C197.457 50.1045 197.647 50.0825 197.823 50.0825H202.123V51.9868ZM211.871 52.7046C211.871 52.9683 211.825 53.2539 211.732 53.5615C211.639 53.8643 211.488 54.1475 211.278 54.4111C211.073 54.6699 210.802 54.8872 210.465 55.063C210.133 55.2388 209.728 55.3267 209.249 55.3267H205.814V53.5176H209.249C209.508 53.5176 209.708 53.4395 209.85 53.2832C209.991 53.1221 210.062 52.9243 210.062 52.6899C210.062 52.4409 209.981 52.2456 209.82 52.104C209.664 51.9624 209.474 51.8916 209.249 51.8916H205.814C205.555 51.8916 205.355 51.9722 205.213 52.1333C205.072 52.2896 205.001 52.4849 205.001 52.7192V55.3779C205.001 55.6318 205.079 55.8296 205.235 55.9712C205.396 56.1128 205.594 56.1836 205.829 56.1836H209.249V58H205.814C205.55 58 205.265 57.9536 204.957 57.8608C204.654 57.7681 204.371 57.6191 204.107 57.4141C203.849 57.2041 203.631 56.9331 203.456 56.6011C203.28 56.2642 203.192 55.8564 203.192 55.3779V52.7046C203.192 52.4409 203.238 52.1577 203.331 51.855C203.424 51.5474 203.573 51.2642 203.778 51.0054C203.988 50.7417 204.259 50.522 204.591 50.3462C204.928 50.1704 205.335 50.0825 205.814 50.0825H209.249C209.513 50.0825 209.796 50.1289 210.099 50.2217C210.406 50.3145 210.689 50.4658 210.948 50.6758C211.212 50.8809 211.432 51.1519 211.607 51.4888C211.783 51.8208 211.871 52.2261 211.871 52.7046ZM221.927 58H220.023V53.6055C220.023 53.3564 219.979 53.1343 219.891 52.939C219.808 52.7388 219.693 52.5679 219.547 52.4263C219.4 52.2847 219.227 52.1772 219.027 52.104C218.832 52.0259 218.619 51.9868 218.39 51.9868H215.057V58H213.153V51.0273C213.153 50.8955 213.177 50.7734 213.226 50.6611C213.275 50.5439 213.343 50.4438 213.431 50.3608C213.519 50.2729 213.622 50.2046 213.739 50.1558C213.856 50.1069 213.98 50.0825 214.112 50.0825H218.404C218.644 50.0825 218.895 50.1094 219.159 50.1631C219.427 50.2168 219.691 50.3047 219.95 50.4268C220.213 50.5439 220.462 50.6953 220.697 50.8809C220.936 51.0615 221.146 51.2837 221.327 51.5474C221.512 51.8062 221.659 52.1064 221.766 52.4482C221.874 52.79 221.927 53.1758 221.927 53.6055V58ZM232.284 55.3267C232.284 55.6538 232.242 55.9492 232.159 56.2129C232.076 56.4717 231.966 56.7012 231.83 56.9014C231.693 57.0967 231.534 57.2651 231.354 57.4067C231.173 57.5435 230.982 57.6558 230.782 57.7437C230.587 57.8315 230.387 57.8975 230.182 57.9414C229.981 57.9805 229.791 58 229.61 58H226.175C225.848 58 225.555 57.9585 225.296 57.8755C225.038 57.7925 224.808 57.6826 224.608 57.5459C224.413 57.4043 224.244 57.2432 224.103 57.0625C223.966 56.8818 223.854 56.6938 223.766 56.4985C223.678 56.2983 223.612 56.0981 223.568 55.8979C223.529 55.6929 223.509 55.5024 223.509 55.3267V52.7485C223.509 52.2603 223.597 51.8477 223.773 51.5107C223.954 51.1689 224.176 50.8931 224.439 50.6831C224.708 50.4683 224.999 50.3145 225.311 50.2217C225.624 50.1289 225.912 50.0825 226.175 50.0825H229.61V51.9868H226.19C225.936 51.9868 225.743 52.0527 225.611 52.1846C225.479 52.3115 225.414 52.4995 225.414 52.7485V55.312C225.414 55.5708 225.477 55.7661 225.604 55.8979C225.736 56.0298 225.926 56.0957 226.175 56.0957H229.61C229.869 56.0957 230.062 56.0298 230.189 55.8979C230.316 55.7661 230.379 55.5757 230.379 55.3267V46.7354H232.284V55.3267ZM236.034 48.4565H234.129V46.7354H236.034V48.4565ZM236.034 58H234.129V50.0825H236.034V58ZM245.365 50.6685C245.443 50.8491 245.462 51.0322 245.423 51.2178C245.389 51.4033 245.306 51.5645 245.174 51.7012L240.772 56.0957H245.35V58H238.48C238.285 58 238.106 57.9463 237.945 57.8389C237.789 57.7266 237.672 57.585 237.594 57.4141C237.521 57.2334 237.501 57.0503 237.535 56.8647C237.574 56.6743 237.665 56.5083 237.806 56.3667L242.186 51.9868H237.608V50.0825H244.493C244.684 50.0825 244.857 50.1338 245.013 50.2363C245.174 50.3389 245.292 50.4829 245.365 50.6685ZM255.062 55.3779C255.062 55.6416 255.016 55.9272 254.923 56.2349C254.83 56.5376 254.679 56.8208 254.469 57.0845C254.264 57.3433 253.993 57.5605 253.656 57.7363C253.324 57.9121 252.918 58 252.44 58H249.005C248.741 58 248.456 57.9536 248.148 57.8608C247.845 57.7681 247.562 57.6191 247.298 57.4141C247.04 57.2041 246.822 56.9331 246.646 56.6011C246.471 56.2642 246.383 55.8564 246.383 55.3779C246.383 55.1143 246.429 54.8286 246.522 54.521C246.615 54.2134 246.764 53.9302 246.969 53.6714C247.179 53.4077 247.45 53.188 247.782 53.0122C248.119 52.8364 248.526 52.7485 249.005 52.7485H252.44V54.5649H249.005C248.746 54.5649 248.546 54.6455 248.404 54.8066C248.263 54.9629 248.192 55.1582 248.192 55.3926C248.192 55.6416 248.272 55.8369 248.434 55.9785C248.6 56.1152 248.795 56.1836 249.02 56.1836H252.44C252.699 56.1836 252.899 56.1055 253.041 55.9492C253.182 55.793 253.253 55.5977 253.253 55.3633V52.7046C253.253 52.4556 253.175 52.2578 253.019 52.1113C252.867 51.9648 252.674 51.8916 252.44 51.8916H248.258V50.0825H252.44C252.704 50.0825 252.987 50.1289 253.29 50.2217C253.597 50.3145 253.88 50.4658 254.139 50.6758C254.403 50.8809 254.623 51.1519 254.798 51.4888C254.974 51.8208 255.062 52.2261 255.062 52.7046V55.3779ZM265.375 55.3267C265.375 55.6538 265.333 55.9492 265.25 56.2129C265.167 56.4717 265.057 56.7012 264.92 56.9014C264.784 57.0967 264.625 57.2651 264.444 57.4067C264.264 57.5435 264.073 57.6558 263.873 57.7437C263.678 57.8315 263.478 57.8975 263.272 57.9414C263.072 57.9805 262.882 58 262.701 58H259.266C258.939 58 258.646 57.9585 258.387 57.8755C258.128 57.7925 257.899 57.6826 257.699 57.5459C257.503 57.4043 257.335 57.2432 257.193 57.0625C257.057 56.8818 256.944 56.6938 256.856 56.4985C256.769 56.2983 256.703 56.0981 256.659 55.8979C256.62 55.6929 256.6 55.5024 256.6 55.3267V52.7485C256.6 52.2603 256.688 51.8477 256.864 51.5107C257.044 51.1689 257.267 50.8931 257.53 50.6831C257.799 50.4683 258.089 50.3145 258.402 50.2217C258.714 50.1289 259.002 50.0825 259.266 50.0825H262.701V51.9868H259.281C259.027 51.9868 258.834 52.0527 258.702 52.1846C258.57 52.3115 258.504 52.4995 258.504 52.7485V55.312C258.504 55.5708 258.568 55.7661 258.695 55.8979C258.827 56.0298 259.017 56.0957 259.266 56.0957H262.701C262.96 56.0957 263.153 56.0298 263.28 55.8979C263.407 55.7661 263.47 55.5757 263.47 55.3267V46.7354H265.375V55.3267ZM275.804 55.3267C275.804 55.6538 275.763 55.9492 275.68 56.2129C275.597 56.4717 275.487 56.7012 275.35 56.9014C275.213 57.0967 275.055 57.2651 274.874 57.4067C274.693 57.5435 274.503 57.6558 274.303 57.7437C274.107 57.8315 273.907 57.8975 273.702 57.9414C273.502 57.9805 273.312 58 273.131 58H269.696C269.432 58 269.144 57.9536 268.832 57.8608C268.519 57.7681 268.229 57.6167 267.96 57.4067C267.696 57.1919 267.474 56.916 267.293 56.5791C267.118 56.2373 267.03 55.8198 267.03 55.3267V52.7485C267.03 52.2603 267.118 51.8477 267.293 51.5107C267.474 51.1689 267.696 50.8931 267.96 50.6831C268.229 50.4683 268.519 50.3145 268.832 50.2217C269.144 50.1289 269.432 50.0825 269.696 50.0825H273.131C273.619 50.0825 274.034 50.1704 274.376 50.3462C274.718 50.522 274.994 50.7441 275.204 51.0127C275.414 51.2764 275.565 51.5645 275.658 51.877C275.755 52.1895 275.804 52.48 275.804 52.7485V55.3267ZM273.9 52.7632C273.9 52.4995 273.834 52.3042 273.702 52.1772C273.57 52.0503 273.38 51.9868 273.131 51.9868H269.71C269.457 51.9868 269.264 52.0527 269.132 52.1846C269 52.3115 268.934 52.4995 268.934 52.7485V55.3267C268.934 55.5757 269 55.7661 269.132 55.8979C269.264 56.0298 269.457 56.0957 269.71 56.0957H273.131C273.39 56.0957 273.583 56.0298 273.709 55.8979C273.836 55.7661 273.9 55.5757 273.9 55.3267V52.7632Z" fill="white"/>
<path d="M271.646 411.973C271.642 411.94 271.642 411.909 271.631 411.876L264.546 388.04L254.912 355.561L232.763 280.535C232.752 280.504 232.733 280.471 232.72 280.438L227.441 262.552C227.326 262.163 227.008 261.857 226.602 261.745C226.198 261.638 216.562 259.124 207.047 261.739C197.519 264.361 190.81 271.319 190.534 271.616C190.481 271.673 190.443 271.733 190.4 271.797L190.408 264.342C190.408 263.873 190.12 263.449 189.672 263.264C189.162 263.054 177.042 258.167 163.008 258.167C148.972 258.167 137.008 263.013 136.502 263.217C136.116 263.375 135.862 263.715 135.794 264.105V242.549C135.794 242.139 135.572 241.765 135.211 241.551C134.912 241.374 127.743 237.252 116.2 237.252C104.655 237.252 97.4888 241.374 97.19 241.551C97.0256 241.643 96.9018 241.777 96.8036 241.927V224.747C96.8036 224.296 96.5346 223.883 96.1098 223.693C95.6871 223.502 85.7175 219 77.206 219C68.6946 219 58.7272 223.502 58.3066 223.693C57.8818 223.887 57.6128 224.296 57.6128 224.747V225.866C57.4868 225.677 57.3032 225.522 57.0834 225.43C56.8549 225.337 51.5008 223.088 46.9025 223.088C42.3041 223.088 36.95 225.337 36.7237 225.434C36.2839 225.621 36 226.039 36 226.504V438.594C36 439.015 36.2412 439.406 36.6255 439.614C36.8518 439.735 42.2464 442.587 46.9025 442.587C51.5585 442.587 56.9531 439.735 57.1794 439.614C57.5637 439.41 57.8049 439.015 57.8049 438.594V437.472C57.9266 437.653 58.0953 437.803 58.3066 437.896C58.7272 438.085 68.6946 442.587 77.206 442.587C85.7175 442.587 95.6871 438.085 96.1055 437.896C96.3275 437.793 96.5047 437.631 96.6264 437.435C96.6691 437.785 96.8719 438.104 97.19 438.291C97.4888 438.468 104.662 442.587 116.2 442.587C127.743 442.587 134.912 438.468 135.211 438.291C135.503 438.118 135.702 437.83 135.764 437.509V438.369C135.764 438.838 136.054 439.256 136.502 439.443C137.008 439.647 148.972 444.492 163.008 444.492C177.042 444.492 189.166 439.606 189.672 439.4C190.12 439.215 190.408 438.793 190.408 438.324L190.389 419.751C190.396 419.707 190.408 419.666 190.408 419.625L190.389 409.037C190.4 408.973 190.408 408.903 190.408 408.833L190.366 394.858V394.821L190.338 366.09L190.415 293.86C190.415 293.837 190.404 293.812 190.404 293.79L190.415 283.045C190.415 283.002 190.4 282.961 190.396 282.92L190.404 273.2L193.745 284.523C193.722 284.685 193.734 284.848 193.779 285.004L199.08 302.868C199.091 302.905 199.091 302.946 199.099 302.983L217.937 366.485L224.621 389.136L230.743 409.934C230.752 409.971 230.778 410.004 230.79 410.041L236.07 427.913C236.108 428.053 236.189 428.178 236.285 428.289L239.795 440.12C239.91 440.511 240.228 440.814 240.634 440.925C240.899 440.995 245.117 442.11 250.693 442.11C253.575 442.11 256.824 441.812 260.069 440.921C269.597 438.299 276.394 431.271 276.682 430.974C276.966 430.672 277.069 430.254 276.954 429.859L271.646 411.973ZM187.985 437.528C185.155 438.575 174.613 442.155 163.002 442.155C151.401 442.155 140.99 438.612 138.185 437.575L138.174 425.641C138.174 425.46 138.116 425.287 138.025 425.135L138.031 421.325C141.737 422.654 151.696 425.798 163.008 425.798C174.165 425.798 184.104 422.713 187.971 421.343L187.985 437.528ZM77.206 221.337C83.9435 221.337 91.9981 224.506 94.3742 225.504V244.672C91.093 243.349 83.7236 240.713 77.206 240.713C70.6885 240.713 63.3191 243.353 60.0379 244.672V225.504C62.414 224.502 70.4579 221.337 77.206 221.337ZM133.369 421.232C131.494 422.162 125.224 424.884 116.2 424.884C107.177 424.884 100.902 422.162 99.0302 421.232V417.905C101.889 419.17 107.92 421.292 116.2 421.292C124.486 421.292 130.51 419.17 133.369 417.905V421.232ZM133.369 261.931C130.516 260.667 124.486 258.544 116.2 258.544C107.915 258.544 101.884 260.667 99.0302 261.931V258.604C100.907 257.676 107.177 254.954 116.2 254.954C125.224 254.954 131.494 257.676 133.369 258.604V261.931ZM99.0259 264.527C100.892 263.597 107.138 260.875 116.196 260.875C125.218 260.875 131.49 263.597 133.364 264.527V415.304C131.498 416.234 125.256 418.956 116.196 418.956C107.172 418.956 100.896 416.234 99.0259 415.304V264.527ZM133.369 243.242V256.003C130.516 254.74 124.486 252.616 116.2 252.616C107.915 252.616 101.884 254.74 99.0302 256.003V243.242C100.907 242.312 107.177 239.59 116.2 239.59C125.224 239.59 131.494 242.312 133.369 243.242ZM94.3742 419.82C91.9981 420.822 83.9392 423.987 77.206 423.987C70.4729 423.987 62.414 420.818 60.0379 419.82V385.832C63.1654 386.47 70.6415 387.836 77.206 387.836C83.7706 387.836 91.2467 386.47 94.3742 385.832V419.82ZM60.0315 247.217C62.4097 246.219 70.4686 243.051 77.2018 243.051C83.935 243.051 91.9939 246.219 94.3699 247.217V281.206C91.2424 280.568 83.7663 279.202 77.2018 279.202C70.6372 279.202 63.1611 280.568 60.0315 281.206V247.217ZM60.0315 317.733H94.3742V349.304H60.0315V317.733ZM94.3742 315.396H60.0315V283.592C62.6872 283.039 70.554 281.535 77.2018 281.535C83.8474 281.535 91.7142 283.039 94.3699 283.592V315.396H94.3742ZM60.0315 351.642H94.3742V383.445C91.7185 383.999 83.8538 385.503 77.206 385.503C70.5583 385.503 62.6936 383.999 60.0379 383.445V351.642H60.0315ZM60.0315 436.079V422.366C63.3149 423.689 70.6842 426.324 77.2018 426.324C83.7172 426.324 91.0887 423.685 94.3699 422.366V436.079C91.9896 437.083 83.935 440.246 77.2018 440.246C70.4686 440.246 62.414 437.083 60.0315 436.079ZM99.0259 423.833C101.884 425.098 107.915 427.219 116.196 427.219C124.481 427.219 130.506 425.098 133.364 423.833V436.596C131.498 437.524 125.256 440.246 116.196 440.246C107.172 440.246 100.896 437.524 99.0259 436.596V423.833ZM138.02 277.595C138.116 277.428 138.17 277.237 138.17 277.033L138.185 265.093C140.986 264.054 151.401 260.513 163.002 260.513C174.613 260.513 185.155 264.095 187.985 265.14L187.966 281.331C184.1 279.959 174.16 276.875 163.002 276.875C151.696 276.875 141.737 280.021 138.025 281.35L138.02 277.595ZM138.054 395.71L138.063 388.554L138.101 380.849L138.093 373.606L138.101 370.028L138.093 360.683L138.101 351.329L138.059 307.034C138.131 306.886 138.18 306.719 138.18 306.542L138.189 294.607C140.99 293.567 151.406 290.026 163.008 290.026C174.581 290.026 185.089 293.586 187.956 294.639L187.898 351.335L187.909 360.683L187.898 370.028L187.902 374.005L187.898 380.849L187.941 394.463L187.947 395.992L187.96 408.047C185.093 409.107 174.585 412.666 163.012 412.666C151.41 412.666 140.998 409.121 138.193 408.084L138.185 396.15C138.174 395.998 138.127 395.848 138.054 395.71ZM187.956 292.146C184.081 290.775 174.152 287.695 163.002 287.695C151.845 287.695 141.997 290.757 138.18 292.113L138.189 283.792C140.99 282.751 151.406 279.208 163.008 279.208C174.594 279.208 185.116 282.776 187.971 283.829L187.956 292.146ZM163.002 415.008C174.152 415.008 184.081 411.928 187.956 410.551L187.966 418.835C185.116 419.89 174.594 423.458 163.002 423.458C151.401 423.458 140.99 419.913 138.185 418.876L138.174 410.588C141.997 411.946 151.839 415.008 163.002 415.008ZM46.9025 225.422C50.0684 225.422 53.8299 226.697 55.3819 227.284V234.948C53.42 234.405 49.983 233.592 46.9025 233.592C43.8177 233.592 40.3849 234.401 38.4251 234.948V227.284C39.9771 226.703 43.7365 225.422 46.9025 225.422ZM55.3819 237.388V426.045C53.8427 426.654 50.0684 428.005 46.9025 428.005C43.7301 428.005 39.9622 426.654 38.4251 426.045V237.388C40.0391 236.913 43.7558 235.929 46.9025 235.929C50.0492 235.929 53.7701 236.913 55.3819 237.388ZM38.4251 437.877V428.559C40.4191 429.287 43.8326 430.343 46.9025 430.343C49.9787 430.343 53.3859 429.291 55.3819 428.559V437.877C53.9068 438.583 50.0983 440.246 46.9025 440.246C43.7173 440.246 39.8982 438.583 38.4251 437.877ZM259.408 438.672C251.908 440.733 244.176 439.322 241.936 438.83L238.499 427.244C238.454 427.094 238.378 426.964 238.277 426.853L237.25 423.374C239.048 423.713 241.955 424.131 245.371 424.131C248.255 424.131 251.502 423.833 254.752 422.942C261.779 421.01 267.317 416.685 269.857 414.421L274.437 429.849C272.784 431.419 266.933 436.6 259.408 438.672ZM225.306 263.848L229.862 279.286C226.463 278.659 219.386 277.794 212.369 279.728C205.269 281.679 199.735 286.041 197.259 288.261L196.236 284.815C196.26 284.656 196.251 284.494 196.202 284.335L192.784 272.745C194.42 271.183 200.214 266.056 207.713 263.992C215.213 261.935 223.037 263.357 225.306 263.848ZM233.173 409.265C233.134 409.129 233.062 409.01 232.974 408.903L217.296 355.8L201.559 302.756C201.573 302.612 201.567 302.462 201.52 302.314L198.102 290.728C199.735 289.166 205.529 284.039 213.029 281.975C220.516 279.918 228.323 281.331 230.609 281.827L249.807 346.866L252.583 356.222L255.127 364.845L262.121 388.365L269.102 411.88C267.432 413.465 261.577 418.635 254.088 420.693C246.586 422.757 238.86 421.347 236.614 420.851L233.173 409.265Z" fill="#F69400"/>
<path d="M124.688 179.67H132.305L137.545 192.44H137.81L143.05 179.67H150.668V202.215H144.679V189.181H144.503L139.483 202.039H135.872L130.852 189.093H130.676V202.215H124.688V179.67ZM153.568 202.215V179.67H163.344C165.061 179.67 166.503 179.901 167.67 180.363C168.845 180.826 169.729 181.479 170.323 182.323C170.925 183.167 171.226 184.161 171.226 185.306C171.226 186.135 171.043 186.891 170.676 187.574C170.316 188.256 169.81 188.829 169.156 189.291C168.503 189.746 167.74 190.062 166.867 190.238V190.458C167.835 190.495 168.716 190.741 169.509 191.196C170.301 191.643 170.932 192.263 171.402 193.056C171.872 193.841 172.107 194.766 172.107 195.83C172.107 197.063 171.784 198.16 171.138 199.122C170.499 200.083 169.589 200.839 168.408 201.389C167.226 201.94 165.817 202.215 164.181 202.215H153.568ZM159.689 197.327H162.551C163.579 197.327 164.349 197.136 164.863 196.755C165.377 196.366 165.634 195.793 165.634 195.038C165.634 194.509 165.513 194.061 165.27 193.694C165.028 193.328 164.683 193.049 164.236 192.858C163.795 192.667 163.263 192.572 162.639 192.572H159.689V197.327ZM159.689 188.785H162.199C162.735 188.785 163.208 188.7 163.619 188.531C164.03 188.363 164.349 188.121 164.577 187.805C164.812 187.482 164.929 187.089 164.929 186.627C164.929 185.93 164.68 185.398 164.181 185.031C163.682 184.656 163.05 184.469 162.287 184.469H159.689V188.785ZM180.132 202.215H173.527L180.969 179.67H189.335L196.777 202.215H190.172L185.24 185.878H185.064L180.132 202.215ZM178.899 193.32H191.317V197.9H178.899V193.32ZM198.948 202.215V179.67H208.68C210.353 179.67 211.817 179.974 213.072 180.583C214.327 181.192 215.303 182.069 216 183.214C216.698 184.359 217.046 185.732 217.046 187.332C217.046 188.946 216.687 190.308 215.967 191.416C215.256 192.524 214.254 193.361 212.962 193.926C211.678 194.491 210.177 194.773 208.46 194.773H202.647V190.018H207.227C207.946 190.018 208.559 189.93 209.065 189.753C209.579 189.57 209.971 189.28 210.243 188.884C210.522 188.487 210.661 187.97 210.661 187.332C210.661 186.686 210.522 186.161 210.243 185.757C209.971 185.346 209.579 185.045 209.065 184.855C208.559 184.656 207.946 184.557 207.227 184.557H205.069V202.215H198.948ZM212.158 191.867L217.795 202.215H211.146L205.641 191.867H212.158ZM223.046 202.567C222.195 202.567 221.464 202.27 220.855 201.676C220.253 201.074 219.956 200.344 219.964 199.485C219.956 198.648 220.253 197.933 220.855 197.338C221.464 196.744 222.195 196.447 223.046 196.447C223.853 196.447 224.565 196.744 225.182 197.338C225.805 197.933 226.121 198.648 226.128 199.485C226.121 200.057 225.97 200.578 225.677 201.048C225.391 201.511 225.016 201.881 224.554 202.16C224.092 202.432 223.589 202.567 223.046 202.567ZM254.811 188.124H248.602C248.558 187.61 248.441 187.144 248.25 186.726C248.066 186.308 247.81 185.948 247.479 185.647C247.156 185.339 246.764 185.104 246.301 184.943C245.839 184.774 245.314 184.69 244.727 184.69C243.7 184.69 242.83 184.939 242.118 185.438C241.414 185.937 240.878 186.653 240.511 187.585C240.151 188.517 239.972 189.636 239.972 190.942C239.972 192.322 240.155 193.478 240.522 194.41C240.896 195.335 241.436 196.032 242.14 196.502C242.845 196.964 243.692 197.195 244.683 197.195C245.248 197.195 245.755 197.125 246.202 196.986C246.65 196.839 247.039 196.63 247.369 196.359C247.699 196.087 247.967 195.76 248.173 195.379C248.386 194.99 248.529 194.553 248.602 194.069L254.811 194.113C254.738 195.067 254.47 196.039 254.007 197.03C253.545 198.014 252.888 198.924 252.037 199.76C251.193 200.589 250.147 201.257 248.899 201.764C247.652 202.27 246.202 202.523 244.551 202.523C242.481 202.523 240.625 202.079 238.981 201.191C237.344 200.303 236.049 198.997 235.095 197.272C234.148 195.548 233.675 193.438 233.675 190.942C233.675 188.432 234.159 186.319 235.128 184.601C236.097 182.877 237.403 181.574 239.047 180.693C240.691 179.805 242.525 179.361 244.551 179.361C245.975 179.361 247.285 179.556 248.481 179.945C249.677 180.334 250.727 180.903 251.63 181.651C252.532 182.392 253.259 183.306 253.809 184.392C254.36 185.478 254.694 186.722 254.811 188.124ZM279.429 190.942C279.429 193.452 278.941 195.57 277.965 197.294C276.989 199.012 275.671 200.314 274.013 201.202C272.354 202.083 270.505 202.523 268.464 202.523C266.409 202.523 264.553 202.079 262.894 201.191C261.243 200.296 259.929 198.99 258.953 197.272C257.984 195.548 257.5 193.438 257.5 190.942C257.5 188.432 257.984 186.319 258.953 184.601C259.929 182.877 261.243 181.574 262.894 180.693C264.553 179.805 266.409 179.361 268.464 179.361C270.505 179.361 272.354 179.805 274.013 180.693C275.671 181.574 276.989 182.877 277.965 184.601C278.941 186.319 279.429 188.432 279.429 190.942ZM273.132 190.942C273.132 189.592 272.952 188.454 272.593 187.53C272.24 186.598 271.715 185.893 271.018 185.416C270.328 184.932 269.477 184.69 268.464 184.69C267.452 184.69 266.597 184.932 265.899 185.416C265.209 185.893 264.685 186.598 264.325 187.53C263.973 188.454 263.797 189.592 263.797 190.942C263.797 192.293 263.973 193.434 264.325 194.366C264.685 195.291 265.209 195.995 265.899 196.48C266.597 196.957 267.452 197.195 268.464 197.195C269.477 197.195 270.328 196.957 271.018 196.48C271.715 195.995 272.24 195.291 272.593 194.366C272.952 193.434 273.132 192.293 273.132 190.942ZM290.935 202.215H282.261V179.67H290.847C293.167 179.67 295.17 180.121 296.858 181.024C298.553 181.919 299.86 183.211 300.777 184.899C301.702 186.579 302.164 188.594 302.164 190.942C302.164 193.291 301.705 195.309 300.788 196.997C299.871 198.678 298.572 199.969 296.891 200.872C295.21 201.767 293.225 202.215 290.935 202.215ZM288.381 197.019H290.715C291.831 197.019 292.781 196.839 293.566 196.48C294.359 196.12 294.961 195.5 295.372 194.619C295.79 193.739 295.999 192.513 295.999 190.942C295.999 189.372 295.787 188.146 295.361 187.266C294.943 186.385 294.326 185.765 293.511 185.405C292.704 185.045 291.713 184.866 290.539 184.866H288.381V197.019ZM304.996 202.215V179.67H321.245V184.601H311.117V188.476H320.408V193.408H311.117V197.283H321.201V202.215H304.996Z" fill="url(#paint1_linear_765_38)"/>
<path d="M123.421 202.419L83 202.607L85.1621 198.232L116.68 198.086L100.812 166.569L103.07 162L123.421 202.419Z" fill="url(#paint2_linear_765_38)"/>
<path d="M111.97 194.901H86.3574L88.2842 191.015L105.423 190.936L96.8105 173.831L99.1426 169.134L111.97 194.901Z" fill="url(#paint3_linear_765_38)"/>
</g>
<defs>
<filter id="filter0_d_765_38" x="18" y="23" width="370" height="429" filterUnits="userSpaceOnUse" color-interpolation-filters="sRGB">
<feFlood flood-opacity="0" result="BackgroundImageFix"/>
<feColorMatrix in="SourceAlpha" type="matrix" values="0 0 0 0 0 0 0 0 0 0 0 0 0 0 0 0 0 0 127 0" result="hardAlpha"/>
<feMorphology radius="4" operator="dilate" in="SourceAlpha" result="effect1_dropShadow_765_38"/>
<feOffset dx="-5"/>
<feGaussianBlur stdDeviation="4.5"/>
<feComposite in2="hardAlpha" operator="out"/>
<feColorMatrix type="matrix" values="0 0 0 0 0 0 0 0 0 0 0 0 0 0 0 0 0 0 0.25 0"/>
<feBlend mode="normal" in2="BackgroundImageFix" result="effect1_dropShadow_765_38"/>
<feBlend mode="normal" in="SourceGraphic" in2="effect1_dropShadow_765_38" result="shape"/>
</filter>
<linearGradient id="paint0_linear_765_38" x1="3.80263e-06" y1="29.5" x2="380" y2="409.5" gradientUnits="userSpaceOnUse">
<stop stop-color="#CE7B1D"/>
<stop offset="0.495192" stop-color="#FFDD00"/>
<stop offset="1" stop-color="#683E0F"/>
</linearGradient>
<linearGradient id="paint1_linear_765_38" x1="333.999" y1="191.134" x2="123.234" y2="191.134" gradientUnits="userSpaceOnUse">
<stop stop-color="#393939"/>
<stop offset="0.504808" stop-color="white"/>
<stop offset="1" stop-color="#9B9B9B"/>
</linearGradient>
<linearGradient id="paint2_linear_765_38" x1="123.421" y1="182.304" x2="83" y2="182.304" gradientUnits="userSpaceOnUse">
<stop stop-color="#393939"/>
<stop offset="0.504808" stop-color="white"/>
<stop offset="1" stop-color="#9B9B9B"/>
</linearGradient>
<linearGradient id="paint3_linear_765_38" x1="111.97" y1="182.017" x2="86.3574" y2="182.017" gradientUnits="userSpaceOnUse">
<stop stop-color="#393939"/>
<stop offset="0.504808" stop-color="white"/>
<stop offset="1" stop-color="#9B9B9B"/>
</linearGradient>
<clipPath id="clip0_765_38">
<rect width="380" height="439" rx="9" fill="white"/>
</clipPath>
</defs>
</svg>
