<svg width="380" height="439" viewBox="0 0 380 439" fill="none" xmlns="http://www.w3.org/2000/svg">
<g clip-path="url(#clip0_727_497)">
<rect width="380" height="439" rx="9" fill="url(#paint0_linear_727_497)"/>
<g filter="url(#filter0_d_727_497)">
<path d="M36 52C36 43.1634 43.1634 36 52 36H380V439H36V52Z" fill="#0D0D0F"/>
</g>
<rect x="67" y="417.917" width="48.4035" height="21.0833" fill="url(#paint1_linear_727_497)"/>
<rect x="121.919" y="353.75" width="48.4035" height="85.25" fill="#232326"/>
<rect x="176.839" y="325.333" width="48.4035" height="113.667" fill="url(#paint2_linear_727_497)"/>
<rect x="231.758" y="353.75" width="48.4035" height="85.25" fill="#232326"/>
<rect x="286.677" y="263.917" width="48.4035" height="175.083" fill="#232326"/>
<rect x="341.597" y="197" width="48.4035" height="242" fill="url(#paint3_linear_727_497)"/>
<path d="M48.6461 370.028C47.8331 370.776 47.7802 372.041 48.5279 372.854C49.2756 373.667 50.5408 373.72 51.3539 372.972L50 371.5L48.6461 370.028ZM174.5 257L174.892 255.039L173.895 254.839L173.146 255.528L174.5 257ZM249.5 272L249.108 273.961L250.365 274.213L251.119 273.175L249.5 272ZM355.975 127.686C355.802 126.595 354.777 125.851 353.686 126.025L335.909 128.85C334.818 129.024 334.075 130.049 334.248 131.14C334.421 132.231 335.446 132.974 336.537 132.801L352.339 130.289L354.851 146.091C355.024 147.182 356.049 147.925 357.14 147.752C358.231 147.579 358.974 146.554 358.801 145.463L355.975 127.686ZM50 371.5L51.3539 372.972L175.854 258.472L174.5 257L173.146 255.528L48.6461 370.028L50 371.5ZM174.5 257L174.108 258.961L249.108 273.961L249.5 272L249.892 270.039L174.892 255.039L174.5 257ZM249.5 272L251.119 273.175L355.619 129.175L354 128L352.381 126.825L247.881 270.825L249.5 272Z" fill="url(#paint4_linear_727_497)"/>
<circle cx="55" cy="52" r="5" fill="#FF0000"/>
<circle cx="73" cy="52" r="5" fill="#FFDD00"/>
<circle cx="91" cy="52" r="5" fill="#3B712C"/>
<line x1="41" y1="64.5" x2="474" y2="64.5" stroke="#1F1F21"/>
<path d="M182.867 53.6055C182.867 54.2451 182.755 54.8335 182.53 55.3706C182.311 55.9077 182.005 56.3716 181.615 56.7622C181.224 57.1479 180.76 57.4507 180.223 57.6704C179.686 57.8901 179.103 58 178.473 58H173.331C173.194 58 173.067 57.9756 172.95 57.9268C172.833 57.8779 172.73 57.812 172.643 57.729C172.56 57.6411 172.494 57.5386 172.445 57.4214C172.396 57.3042 172.372 57.1772 172.372 57.0405V48.4565C172.372 48.3247 172.396 48.2002 172.445 48.083C172.494 47.9658 172.56 47.8633 172.643 47.7754C172.73 47.6875 172.833 47.6191 172.95 47.5703C173.067 47.5215 173.194 47.4971 173.331 47.4971H178.473C179.103 47.4971 179.686 47.6069 180.223 47.8267C180.76 48.0464 181.224 48.3516 181.615 48.7422C182.005 49.1279 182.311 49.5918 182.53 50.1338C182.755 50.6709 182.867 51.2568 182.867 51.8916V53.6055ZM180.963 51.8916C180.963 51.5205 180.902 51.1812 180.78 50.8735C180.663 50.5659 180.494 50.3047 180.274 50.0898C180.055 49.8701 179.791 49.7017 179.483 49.5845C179.181 49.4624 178.844 49.4014 178.473 49.4014H174.276V56.0957H178.473C178.844 56.0957 179.181 56.0371 179.483 55.9199C179.791 55.7979 180.055 55.6294 180.274 55.4146C180.494 55.1948 180.663 54.9336 180.78 54.6309C180.902 54.3232 180.963 53.9814 180.963 53.6055V51.8916ZM193.041 52.7046C193.041 52.9683 192.994 53.2539 192.901 53.5615C192.809 53.8643 192.657 54.1475 192.447 54.4111C192.242 54.6699 191.971 54.8872 191.634 55.063C191.302 55.2388 190.897 55.3267 190.418 55.3267H186.983V53.5176H190.418C190.677 53.5176 190.877 53.4395 191.019 53.2832C191.161 53.1221 191.231 52.9243 191.231 52.6899C191.231 52.4409 191.151 52.2456 190.99 52.104C190.833 51.9624 190.643 51.8916 190.418 51.8916H186.983C186.725 51.8916 186.524 51.9722 186.383 52.1333C186.241 52.2896 186.17 52.4849 186.17 52.7192V55.3779C186.17 55.6318 186.249 55.8296 186.405 55.9712C186.566 56.1128 186.764 56.1836 186.998 56.1836H190.418V58H186.983C186.72 58 186.434 57.9536 186.126 57.8608C185.824 57.7681 185.541 57.6191 185.277 57.4141C185.018 57.2041 184.801 56.9331 184.625 56.6011C184.449 56.2642 184.361 55.8564 184.361 55.3779V52.7046C184.361 52.4409 184.408 52.1577 184.5 51.855C184.593 51.5474 184.742 51.2642 184.947 51.0054C185.157 50.7417 185.428 50.522 185.76 50.3462C186.097 50.1704 186.505 50.0825 186.983 50.0825H190.418C190.682 50.0825 190.965 50.1289 191.268 50.2217C191.576 50.3145 191.859 50.4658 192.118 50.6758C192.381 50.8809 192.601 51.1519 192.777 51.4888C192.953 51.8208 193.041 52.2261 193.041 52.7046ZM201.976 55.3267C201.976 55.6538 201.935 55.9492 201.852 56.2129C201.769 56.4717 201.659 56.7012 201.522 56.9014C201.385 57.0967 201.227 57.2651 201.046 57.4067C200.865 57.5435 200.675 57.6558 200.475 57.7437C200.279 57.8315 200.079 57.8975 199.874 57.9414C199.674 57.9805 199.483 58 199.303 58H194.146V56.0957H199.288C199.547 56.0957 199.742 56.0298 199.874 55.8979C200.006 55.7661 200.072 55.5757 200.072 55.3267C200.047 54.8188 199.791 54.5649 199.303 54.5649H196.351C195.931 54.5649 195.575 54.4917 195.282 54.3452C194.989 54.1987 194.75 54.0156 194.564 53.7959C194.383 53.5762 194.251 53.3394 194.168 53.0854C194.09 52.8315 194.051 52.5947 194.051 52.375C194.051 51.9502 194.127 51.5938 194.278 51.3057C194.43 51.0127 194.62 50.7759 194.85 50.5952C195.079 50.4146 195.328 50.2852 195.597 50.207C195.865 50.124 196.117 50.0825 196.351 50.0825H201.031V51.9868H196.366C196.268 51.9868 196.19 51.999 196.131 52.0234C196.078 52.043 196.036 52.0723 196.007 52.1113C195.982 52.1455 195.968 52.1846 195.963 52.2285C195.958 52.2676 195.956 52.3066 195.956 52.3457C195.96 52.4238 195.975 52.4849 196 52.5288C196.024 52.5728 196.053 52.6045 196.087 52.624C196.126 52.6436 196.168 52.6558 196.212 52.6606C196.261 52.6606 196.307 52.6606 196.351 52.6606H199.303C199.791 52.6606 200.206 52.7485 200.548 52.9243C200.89 53.1001 201.166 53.3223 201.375 53.5908C201.585 53.8545 201.737 54.1426 201.83 54.4551C201.927 54.7676 201.976 55.0581 201.976 55.3267ZM211.834 52.7046C211.834 52.9683 211.788 53.2539 211.695 53.5615C211.603 53.8643 211.451 54.1475 211.241 54.4111C211.036 54.6699 210.765 54.8872 210.428 55.063C210.096 55.2388 209.691 55.3267 209.212 55.3267H205.777V53.5176H209.212C209.471 53.5176 209.671 53.4395 209.813 53.2832C209.955 53.1221 210.025 52.9243 210.025 52.6899C210.025 52.4409 209.945 52.2456 209.784 52.104C209.627 51.9624 209.437 51.8916 209.212 51.8916H205.777C205.519 51.8916 205.318 51.9722 205.177 52.1333C205.035 52.2896 204.964 52.4849 204.964 52.7192V55.3779C204.964 55.6318 205.042 55.8296 205.199 55.9712C205.36 56.1128 205.558 56.1836 205.792 56.1836H209.212V58H205.777C205.514 58 205.228 57.9536 204.92 57.8608C204.618 57.7681 204.334 57.6191 204.071 57.4141C203.812 57.2041 203.595 56.9331 203.419 56.6011C203.243 56.2642 203.155 55.8564 203.155 55.3779V52.7046C203.155 52.4409 203.202 52.1577 203.294 51.855C203.387 51.5474 203.536 51.2642 203.741 51.0054C203.951 50.7417 204.222 50.522 204.554 50.3462C204.891 50.1704 205.299 50.0825 205.777 50.0825H209.212C209.476 50.0825 209.759 50.1289 210.062 50.2217C210.37 50.3145 210.653 50.4658 210.912 50.6758C211.175 50.8809 211.395 51.1519 211.571 51.4888C211.747 51.8208 211.834 52.2261 211.834 52.7046ZM220.184 58H218.28V52.7485C218.28 52.4995 218.214 52.3115 218.082 52.1846C217.95 52.0527 217.755 51.9868 217.496 51.9868H215.021V58H213.116V51.0273C213.116 50.8955 213.141 50.7734 213.189 50.6611C213.238 50.5439 213.307 50.4438 213.395 50.3608C213.482 50.2729 213.585 50.2046 213.702 50.1558C213.819 50.1069 213.944 50.0825 214.076 50.0825H217.511C217.774 50.0825 218.058 50.1289 218.36 50.2217C218.663 50.3145 218.951 50.4634 219.225 50.6685V50.0825H221.803C221.983 50.0825 222.174 50.1045 222.374 50.1484C222.574 50.1875 222.772 50.251 222.967 50.3389C223.167 50.4268 223.358 50.5415 223.539 50.6831C223.719 50.8198 223.878 50.9883 224.015 51.1885C224.151 51.3838 224.261 51.6108 224.344 51.8696C224.427 52.1284 224.469 52.4214 224.469 52.7485V58H222.564V52.7485C222.564 52.4995 222.501 52.3115 222.374 52.1846C222.252 52.0527 222.062 51.9868 221.803 51.9868H220.089C220.152 52.2212 220.184 52.4751 220.184 52.7485V58ZM234.957 55.3267C234.957 55.6538 234.916 55.9492 234.833 56.2129C234.75 56.4717 234.64 56.7012 234.503 56.9014C234.366 57.0967 234.208 57.2651 234.027 57.4067C233.846 57.5435 233.656 57.6558 233.456 57.7437C233.26 57.8315 233.062 57.8975 232.862 57.9414C232.662 57.9805 232.472 58 232.291 58H228.856V56.0957H232.291C232.545 56.0957 232.735 56.0298 232.862 55.8979C232.989 55.7661 233.053 55.5757 233.053 55.3267V52.7632C233.053 52.4995 232.987 52.3042 232.855 52.1772C232.728 52.0503 232.54 51.9868 232.291 51.9868H228.871C228.612 51.9868 228.417 52.0527 228.285 52.1846C228.153 52.3115 228.087 52.4995 228.087 52.7485V60.4756H226.183V52.7485C226.183 52.4214 226.224 52.1284 226.307 51.8696C226.39 51.6108 226.5 51.3838 226.637 51.1885C226.778 50.9883 226.939 50.8198 227.12 50.6831C227.301 50.5415 227.489 50.4268 227.684 50.3389C227.884 50.251 228.084 50.1875 228.285 50.1484C228.49 50.1045 228.68 50.0825 228.856 50.0825H232.291C232.618 50.0825 232.911 50.124 233.17 50.207C233.429 50.29 233.656 50.3999 233.851 50.5366C234.051 50.6733 234.22 50.832 234.356 51.0127C234.498 51.1934 234.613 51.3838 234.701 51.584C234.789 51.7793 234.852 51.9771 234.891 52.1772C234.935 52.3774 234.957 52.5679 234.957 52.7485V55.3267ZM245.101 52.7046C245.101 52.9683 245.055 53.2539 244.962 53.5615C244.869 53.8643 244.718 54.1475 244.508 54.4111C244.303 54.6699 244.032 54.8872 243.695 55.063C243.363 55.2388 242.958 55.3267 242.479 55.3267H239.044V53.5176H242.479C242.738 53.5176 242.938 53.4395 243.08 53.2832C243.221 53.1221 243.292 52.9243 243.292 52.6899C243.292 52.4409 243.211 52.2456 243.05 52.104C242.894 51.9624 242.704 51.8916 242.479 51.8916H239.044C238.785 51.8916 238.585 51.9722 238.443 52.1333C238.302 52.2896 238.231 52.4849 238.231 52.7192V55.3779C238.231 55.6318 238.309 55.8296 238.465 55.9712C238.626 56.1128 238.824 56.1836 239.059 56.1836H242.479V58H239.044C238.78 58 238.495 57.9536 238.187 57.8608C237.884 57.7681 237.601 57.6191 237.337 57.4141C237.079 57.2041 236.861 56.9331 236.686 56.6011C236.51 56.2642 236.422 55.8564 236.422 55.3779V52.7046C236.422 52.4409 236.468 52.1577 236.561 51.855C236.654 51.5474 236.803 51.2642 237.008 51.0054C237.218 50.7417 237.489 50.522 237.821 50.3462C238.158 50.1704 238.565 50.0825 239.044 50.0825H242.479C242.743 50.0825 243.026 50.1289 243.329 50.2217C243.636 50.3145 243.919 50.4658 244.178 50.6758C244.442 50.8809 244.662 51.1519 244.837 51.4888C245.013 51.8208 245.101 52.2261 245.101 52.7046ZM255.157 58H253.253V53.6055C253.253 53.3564 253.209 53.1343 253.121 52.939C253.038 52.7388 252.923 52.5679 252.777 52.4263C252.63 52.2847 252.457 52.1772 252.257 52.104C252.062 52.0259 251.849 51.9868 251.62 51.9868H248.287V58H246.383V51.0273C246.383 50.8955 246.407 50.7734 246.456 50.6611C246.505 50.5439 246.573 50.4438 246.661 50.3608C246.749 50.2729 246.852 50.2046 246.969 50.1558C247.086 50.1069 247.21 50.0825 247.342 50.0825H251.634C251.874 50.0825 252.125 50.1094 252.389 50.1631C252.657 50.2168 252.921 50.3047 253.18 50.4268C253.443 50.5439 253.692 50.6953 253.927 50.8809C254.166 51.0615 254.376 51.2837 254.557 51.5474C254.742 51.8062 254.889 52.1064 254.996 52.4482C255.104 52.79 255.157 53.1758 255.157 53.6055V58ZM265.631 58H263.727V52.7485C263.727 52.4995 263.663 52.3115 263.536 52.1846C263.409 52.0527 263.219 51.9868 262.965 51.9868H259.53V50.0825H262.965C263.146 50.0825 263.336 50.1045 263.536 50.1484C263.736 50.1875 263.934 50.251 264.129 50.3389C264.33 50.4268 264.52 50.5415 264.701 50.6831C264.881 50.8198 265.04 50.9883 265.177 51.1885C265.313 51.3838 265.423 51.6108 265.506 51.8696C265.589 52.1284 265.631 52.4214 265.631 52.7485V58ZM258.761 58H256.856V46.7354H258.761V58ZM275.987 55.3267C275.987 55.6538 275.946 55.9492 275.863 56.2129C275.78 56.4717 275.67 56.7012 275.533 56.9014C275.396 57.0967 275.238 57.2651 275.057 57.4067C274.876 57.5435 274.686 57.6558 274.486 57.7437C274.291 57.8315 274.09 57.8975 273.885 57.9414C273.685 57.9805 273.495 58 273.314 58H269.879C269.615 58 269.327 57.9536 269.015 57.8608C268.702 57.7681 268.412 57.6167 268.143 57.4067C267.879 57.1919 267.657 56.916 267.477 56.5791C267.301 56.2373 267.213 55.8198 267.213 55.3267V52.7485C267.213 52.2603 267.301 51.8477 267.477 51.5107C267.657 51.1689 267.879 50.8931 268.143 50.6831C268.412 50.4683 268.702 50.3145 269.015 50.2217C269.327 50.1289 269.615 50.0825 269.879 50.0825H273.314C273.802 50.0825 274.217 50.1704 274.559 50.3462C274.901 50.522 275.177 50.7441 275.387 51.0127C275.597 51.2764 275.748 51.5645 275.841 51.877C275.938 52.1895 275.987 52.48 275.987 52.7485V55.3267ZM274.083 52.7632C274.083 52.4995 274.017 52.3042 273.885 52.1772C273.753 52.0503 273.563 51.9868 273.314 51.9868H269.894C269.64 51.9868 269.447 52.0527 269.315 52.1846C269.183 52.3115 269.117 52.4995 269.117 52.7485V55.3267C269.117 55.5757 269.183 55.7661 269.315 55.8979C269.447 56.0298 269.64 56.0957 269.894 56.0957H273.314C273.573 56.0957 273.766 56.0298 273.893 55.8979C274.02 55.7661 274.083 55.5757 274.083 55.3267V52.7632Z" fill="white"/>
</g>
<defs>
<filter id="filter0_d_727_497" x="18" y="23" width="370" height="429" filterUnits="userSpaceOnUse" color-interpolation-filters="sRGB">
<feFlood flood-opacity="0" result="BackgroundImageFix"/>
<feColorMatrix in="SourceAlpha" type="matrix" values="0 0 0 0 0 0 0 0 0 0 0 0 0 0 0 0 0 0 127 0" result="hardAlpha"/>
<feMorphology radius="4" operator="dilate" in="SourceAlpha" result="effect1_dropShadow_727_497"/>
<feOffset dx="-5"/>
<feGaussianBlur stdDeviation="4.5"/>
<feComposite in2="hardAlpha" operator="out"/>
<feColorMatrix type="matrix" values="0 0 0 0 0 0 0 0 0 0 0 0 0 0 0 0 0 0 0.25 0"/>
<feBlend mode="normal" in2="BackgroundImageFix" result="effect1_dropShadow_727_497"/>
<feBlend mode="normal" in="SourceGraphic" in2="effect1_dropShadow_727_497" result="shape"/>
</filter>
<linearGradient id="paint0_linear_727_497" x1="3.80263e-06" y1="29.5" x2="380" y2="409.5" gradientUnits="userSpaceOnUse">
<stop stop-color="#CE7B1D"/>
<stop offset="0.495192" stop-color="#FFDD00"/>
<stop offset="1" stop-color="#683E0F"/>
</linearGradient>
<linearGradient id="paint1_linear_727_497" x1="91.2017" y1="417.917" x2="91.2017" y2="439" gradientUnits="userSpaceOnUse">
<stop stop-color="#CE7B1D"/>
<stop offset="1" stop-color="#683E0F"/>
</linearGradient>
<linearGradient id="paint2_linear_727_497" x1="201.041" y1="325.333" x2="201.041" y2="439" gradientUnits="userSpaceOnUse">
<stop stop-color="#CE7B1D"/>
<stop offset="1" stop-color="#683E0F"/>
</linearGradient>
<linearGradient id="paint3_linear_727_497" x1="365.798" y1="197" x2="365.798" y2="439" gradientUnits="userSpaceOnUse">
<stop stop-color="#CE7B1D"/>
<stop offset="1" stop-color="#683E0F"/>
</linearGradient>
<linearGradient id="paint4_linear_727_497" x1="323.75" y1="128" x2="80.2501" y2="371.5" gradientUnits="userSpaceOnUse">
<stop stop-color="#CE7B1D"/>
<stop offset="1" stop-color="#1F1F21"/>
</linearGradient>
<clipPath id="clip0_727_497">
<rect width="380" height="439" rx="9" fill="white"/>
</clipPath>
</defs>
</svg>
