<svg width="380" height="439" viewBox="0 0 380 439" fill="none" xmlns="http://www.w3.org/2000/svg">
<g clip-path="url(#clip0_727_466)">
<rect width="380" height="439" rx="9" fill="url(#paint0_linear_727_466)"/>
<g filter="url(#filter0_d_727_466)">
<path d="M36 52C36 43.1634 43.1634 36 52 36H380V439H36V52Z" fill="#0D0D0D"/>
</g>
<path d="M203.666 343.279L203.098 293.526L151.372 294.214L143.112 304.925C143.112 304.925 132.217 319.832 142.778 333.532C152.242 345.793 162.642 343.247 168.333 343.211C174.026 343.159 203.666 343.279 203.666 343.279ZM288.201 210.729L246.236 237.478L274.137 281.05L287.576 282.404C287.576 282.404 305.999 283.796 312.068 267.59C317.48 253.087 309.841 245.592 306.792 240.782C303.748 235.973 288.201 210.729 288.201 210.729ZM134.229 201.712L177.239 226.727L203.176 181.959L198.211 169.393C198.211 169.393 191.006 152.393 173.816 154.427C158.451 156.272 155.284 166.497 152.411 171.405C149.53 176.326 134.229 201.712 134.229 201.712Z" fill="#232326"/>
<mask id="mask0_727_466" style="mask-type:luminance" maskUnits="userSpaceOnUse" x="102" y="154" width="203" height="204">
<path d="M102 154H304.83V357.51H102V154Z" fill="white"/>
</mask>
<g mask="url(#mask0_727_466)">
<path d="M132.47 318.528L105.089 272.972C105.089 272.972 100.934 265.6 105.725 258.03C110.52 250.469 116.237 239.272 116.237 239.272L102.351 229.966L149.824 228.172L175.948 269.038L160.36 261.26C160.36 261.26 126.3 310.191 133.226 318.082L132.47 318.528ZM304.772 284.268L280.525 331.566C280.525 331.566 276.466 339 267.501 338.92C258.538 338.829 246.023 339.89 246.023 339.89L245.447 356.598L218.856 317.221L239.787 273.459L241.399 290.803C241.399 290.803 300.94 293.923 303.986 283.847L304.772 284.268ZM191.975 153.275L245.139 153.124C245.139 153.124 253.605 153.326 257.645 161.33C261.68 169.324 268.355 179.961 268.355 179.961L283.462 172.826L260.663 214.499L212.177 215.965L226.852 206.588C226.852 206.588 202.319 152.243 191.983 154.141L191.975 153.275Z" fill="#3B712C"/>
</g>
<path d="M197.909 267.324C197.885 267.324 197.837 267.312 197.765 267.288C197.693 267.288 197.609 267.264 197.513 267.216L183.113 257.496C182.801 257.28 182.549 257.076 182.357 256.884C182.165 256.668 182.069 256.368 182.069 255.984V254.472C182.069 254.088 182.165 253.8 182.357 253.608C182.549 253.392 182.801 253.176 183.113 252.96L197.513 243.24C197.609 243.192 197.693 243.168 197.765 243.168C197.837 243.144 197.885 243.132 197.909 243.132C198.125 243.132 198.305 243.204 198.449 243.348C198.593 243.492 198.665 243.672 198.665 243.888V249.72C198.665 250.176 198.521 250.524 198.233 250.764C197.969 251.004 197.729 251.184 197.513 251.304L191.213 255.228L197.513 259.188C197.729 259.308 197.969 259.476 198.233 259.692C198.521 259.908 198.665 260.256 198.665 260.736V266.568C198.665 266.784 198.593 266.964 198.449 267.108C198.305 267.252 198.125 267.324 197.909 267.324ZM202.124 270.024C201.908 270.024 201.716 269.94 201.548 269.772C201.404 269.628 201.332 269.448 201.332 269.232C201.332 269.136 201.356 269.028 201.404 268.908L213.464 239.784C213.584 239.52 213.764 239.28 214.004 239.064C214.244 238.824 214.592 238.704 215.048 238.704H219.872C220.088 238.704 220.268 238.788 220.412 238.956C220.58 239.1 220.664 239.28 220.664 239.496C220.664 239.592 220.64 239.7 220.592 239.82L208.424 268.944C208.328 269.184 208.16 269.424 207.92 269.664C207.68 269.904 207.32 270.024 206.84 270.024H202.124ZM224.088 267.36C223.872 267.36 223.692 267.288 223.548 267.144C223.404 267 223.332 266.82 223.332 266.604V260.772C223.332 260.292 223.464 259.944 223.728 259.728C224.016 259.512 224.268 259.344 224.484 259.224L230.784 255.264L224.484 251.34C224.268 251.22 224.016 251.04 223.728 250.8C223.464 250.56 223.332 250.212 223.332 249.756V243.924C223.332 243.708 223.404 243.528 223.548 243.384C223.692 243.24 223.872 243.168 224.088 243.168C224.136 243.168 224.184 243.18 224.232 243.204C224.304 243.204 224.388 243.228 224.484 243.276L238.884 252.996C239.22 253.212 239.472 253.428 239.64 253.644C239.832 253.836 239.928 254.124 239.928 254.508V256.02C239.928 256.404 239.832 256.704 239.64 256.92C239.472 257.112 239.22 257.316 238.884 257.532L224.484 267.252C224.388 267.3 224.304 267.324 224.232 267.324C224.184 267.348 224.136 267.36 224.088 267.36Z" fill="#3B712C"/>
<circle cx="56" cy="54" r="5" fill="#FF0000"/>
<circle cx="74" cy="54" r="5" fill="#FFDD00"/>
<circle cx="92" cy="54" r="5" fill="#3B712C"/>
<line x1="42" y1="66.5" x2="475" y2="66.5" stroke="#1F1F21"/>
<path d="M178.161 55.708H172.148V53.7891H178.161V55.708ZM179.018 60H172.148C171.884 60 171.596 59.9536 171.284 59.8608C170.971 59.7681 170.681 59.6167 170.412 59.4067C170.148 59.1919 169.926 58.916 169.746 58.5791C169.57 58.2373 169.482 57.8198 169.482 57.3267V50.4565C169.482 50.3247 169.506 50.2002 169.555 50.083C169.604 49.9658 169.67 49.8633 169.753 49.7754C169.841 49.6875 169.943 49.6191 170.061 49.5703C170.178 49.5215 170.305 49.4971 170.441 49.4971H179.018V51.4014H171.386V57.3267C171.386 57.5757 171.452 57.7661 171.584 57.8979C171.716 58.0298 171.909 58.0957 172.163 58.0957H179.018V60ZM188.232 60H183.068C182.805 60 182.517 59.9536 182.204 59.8608C181.892 59.7681 181.601 59.6167 181.333 59.4067C181.069 59.1919 180.847 58.916 180.666 58.5791C180.49 58.2373 180.402 57.8198 180.402 57.3267V54.7485C180.402 54.5679 180.422 54.3774 180.461 54.1772C180.505 53.9771 180.571 53.7793 180.659 53.584C180.747 53.3838 180.859 53.1934 180.996 53.0127C181.137 52.832 181.306 52.6733 181.501 52.5366C181.701 52.3999 181.931 52.29 182.189 52.207C182.448 52.124 182.741 52.0825 183.068 52.0825H188.232V53.9868H183.068C182.819 53.9868 182.629 54.0503 182.497 54.1772C182.37 54.3042 182.307 54.4995 182.307 54.7632V57.3267C182.307 57.5757 182.373 57.7661 182.504 57.8979C182.636 58.0298 182.829 58.0957 183.083 58.0957H188.232V60ZM198.361 57.3267C198.361 57.6538 198.32 57.9492 198.237 58.2129C198.154 58.4717 198.044 58.7012 197.907 58.9014C197.771 59.0967 197.612 59.2651 197.431 59.4067C197.25 59.5435 197.06 59.6558 196.86 59.7437C196.665 59.8315 196.464 59.8975 196.259 59.9414C196.059 59.9805 195.869 60 195.688 60H192.253C191.989 60 191.701 59.9536 191.389 59.8608C191.076 59.7681 190.786 59.6167 190.517 59.4067C190.253 59.1919 190.031 58.916 189.851 58.5791C189.675 58.2373 189.587 57.8198 189.587 57.3267V54.7485C189.587 54.2603 189.675 53.8477 189.851 53.5107C190.031 53.1689 190.253 52.8931 190.517 52.6831C190.786 52.4683 191.076 52.3145 191.389 52.2217C191.701 52.1289 191.989 52.0825 192.253 52.0825H195.688C196.176 52.0825 196.591 52.1704 196.933 52.3462C197.275 52.522 197.551 52.7441 197.761 53.0127C197.971 53.2764 198.122 53.5645 198.215 53.877C198.312 54.1895 198.361 54.48 198.361 54.7485V57.3267ZM196.457 54.7632C196.457 54.4995 196.391 54.3042 196.259 54.1772C196.127 54.0503 195.937 53.9868 195.688 53.9868H192.268C192.014 53.9868 191.821 54.0527 191.689 54.1846C191.557 54.3115 191.491 54.4995 191.491 54.7485V57.3267C191.491 57.5757 191.557 57.7661 191.689 57.8979C191.821 58.0298 192.014 58.0957 192.268 58.0957H195.688C195.947 58.0957 196.14 58.0298 196.267 57.8979C196.394 57.7661 196.457 57.5757 196.457 57.3267V54.7632ZM203.466 60H202.617C202.343 60 202.05 59.9536 201.738 59.8608C201.43 59.7681 201.142 59.6167 200.874 59.4067C200.605 59.1919 200.383 58.916 200.207 58.5791C200.031 58.2373 199.943 57.8198 199.943 57.3267V48.7354H201.848V57.3267C201.848 57.561 201.921 57.749 202.067 57.8906C202.214 58.0273 202.397 58.0957 202.617 58.0957H203.466V60ZM213.303 57.3267C213.303 57.6538 213.261 57.9492 213.178 58.2129C213.095 58.4717 212.985 58.7012 212.849 58.9014C212.712 59.0967 212.553 59.2651 212.373 59.4067C212.192 59.5435 212.001 59.6558 211.801 59.7437C211.606 59.8315 211.406 59.8975 211.201 59.9414C211 59.9805 210.81 60 210.629 60H207.194C206.931 60 206.643 59.9536 206.33 59.8608C206.018 59.7681 205.727 59.6167 205.458 59.4067C205.195 59.1919 204.973 58.916 204.792 58.5791C204.616 58.2373 204.528 57.8198 204.528 57.3267V54.7485C204.528 54.2603 204.616 53.8477 204.792 53.5107C204.973 53.1689 205.195 52.8931 205.458 52.6831C205.727 52.4683 206.018 52.3145 206.33 52.2217C206.643 52.1289 206.931 52.0825 207.194 52.0825H210.629C211.118 52.0825 211.533 52.1704 211.875 52.3462C212.216 52.522 212.492 52.7441 212.702 53.0127C212.912 53.2764 213.063 53.5645 213.156 53.877C213.254 54.1895 213.303 54.48 213.303 54.7485V57.3267ZM211.398 54.7632C211.398 54.4995 211.333 54.3042 211.201 54.1772C211.069 54.0503 210.878 53.9868 210.629 53.9868H207.209C206.955 53.9868 206.762 54.0527 206.63 54.1846C206.499 54.3115 206.433 54.4995 206.433 54.7485V57.3267C206.433 57.5757 206.499 57.7661 206.63 57.8979C206.762 58.0298 206.955 58.0957 207.209 58.0957H210.629C210.888 58.0957 211.081 58.0298 211.208 57.8979C211.335 57.7661 211.398 57.5757 211.398 57.3267V54.7632ZM212.805 49.6948L208.981 51.0645L208.476 49.9658L211.999 47.915L212.805 49.6948ZM223.542 60.7617C223.542 61.0889 223.5 61.3818 223.417 61.6406C223.334 61.9043 223.225 62.1338 223.088 62.3291C222.951 62.5293 222.792 62.6978 222.612 62.8345C222.431 62.9761 222.241 63.0908 222.041 63.1787C221.845 63.2666 221.645 63.3301 221.44 63.3691C221.24 63.4131 221.049 63.4351 220.869 63.4351H217.434V61.5308H220.869C221.127 61.5308 221.32 61.4648 221.447 61.333C221.574 61.2012 221.638 61.0107 221.638 60.7617V54.7485C221.638 54.4995 221.574 54.3115 221.447 54.1846C221.32 54.0527 221.127 53.9868 220.869 53.9868H217.434C217.199 53.9868 217.014 54.0601 216.877 54.2065C216.74 54.3481 216.672 54.5288 216.672 54.7485V57.3267C216.672 57.5757 216.738 57.7661 216.87 57.8979C217.001 58.0298 217.194 58.0957 217.448 58.0957H220.869V60H217.434C217.253 60 217.062 59.9805 216.862 59.9414C216.662 59.8975 216.462 59.8315 216.262 59.7437C216.066 59.6558 215.878 59.5435 215.698 59.4067C215.517 59.2651 215.358 59.0967 215.222 58.9014C215.085 58.7012 214.975 58.4717 214.892 58.2129C214.809 57.9492 214.768 57.6538 214.768 57.3267V54.7485C214.768 54.5679 214.787 54.3774 214.826 54.1772C214.87 53.9771 214.936 53.7793 215.024 53.584C215.112 53.3838 215.224 53.1934 215.361 53.0127C215.502 52.832 215.671 52.6733 215.866 52.5366C216.066 52.3999 216.296 52.29 216.555 52.207C216.813 52.124 217.106 52.0825 217.434 52.0825H220.869C221.049 52.0825 221.24 52.1045 221.44 52.1484C221.645 52.1875 221.845 52.251 222.041 52.3389C222.241 52.4268 222.431 52.5415 222.612 52.6831C222.792 52.8198 222.951 52.9883 223.088 53.1885C223.225 53.3838 223.334 53.6108 223.417 53.8696C223.5 54.1284 223.542 54.4214 223.542 54.7485V60.7617ZM227.219 50.4565H225.314V48.7354H227.219V50.4565ZM227.219 60H225.314V52.0825H227.219V60ZM236.718 60H231.555C231.291 60 231.003 59.9536 230.69 59.8608C230.378 59.7681 230.087 59.6167 229.819 59.4067C229.555 59.1919 229.333 58.916 229.152 58.5791C228.977 58.2373 228.889 57.8198 228.889 57.3267V54.7485C228.889 54.5679 228.908 54.3774 228.947 54.1772C228.991 53.9771 229.057 53.7793 229.145 53.584C229.233 53.3838 229.345 53.1934 229.482 53.0127C229.624 52.832 229.792 52.6733 229.987 52.5366C230.188 52.3999 230.417 52.29 230.676 52.207C230.935 52.124 231.228 52.0825 231.555 52.0825H236.718V53.9868H231.555C231.306 53.9868 231.115 54.0503 230.983 54.1772C230.856 54.3042 230.793 54.4995 230.793 54.7632V57.3267C230.793 57.5757 230.859 57.7661 230.991 57.8979C231.123 58.0298 231.315 58.0957 231.569 58.0957H236.718V60ZM246.848 57.3267C246.848 57.6538 246.806 57.9492 246.723 58.2129C246.64 58.4717 246.53 58.7012 246.394 58.9014C246.257 59.0967 246.098 59.2651 245.917 59.4067C245.737 59.5435 245.546 59.6558 245.346 59.7437C245.151 59.8315 244.951 59.8975 244.746 59.9414C244.545 59.9805 244.355 60 244.174 60H240.739C240.476 60 240.188 59.9536 239.875 59.8608C239.562 59.7681 239.272 59.6167 239.003 59.4067C238.74 59.1919 238.518 58.916 238.337 58.5791C238.161 58.2373 238.073 57.8198 238.073 57.3267V54.7485C238.073 54.2603 238.161 53.8477 238.337 53.5107C238.518 53.1689 238.74 52.8931 239.003 52.6831C239.272 52.4683 239.562 52.3145 239.875 52.2217C240.188 52.1289 240.476 52.0825 240.739 52.0825H244.174C244.663 52.0825 245.078 52.1704 245.419 52.3462C245.761 52.522 246.037 52.7441 246.247 53.0127C246.457 53.2764 246.608 53.5645 246.701 53.877C246.799 54.1895 246.848 54.48 246.848 54.7485V57.3267ZM244.943 54.7632C244.943 54.4995 244.877 54.3042 244.746 54.1772C244.614 54.0503 244.423 53.9868 244.174 53.9868H240.754C240.5 53.9868 240.307 54.0527 240.175 54.1846C240.043 54.3115 239.978 54.4995 239.978 54.7485V57.3267C239.978 57.5757 240.043 57.7661 240.175 57.8979C240.307 58.0298 240.5 58.0957 240.754 58.0957H244.174C244.433 58.0957 244.626 58.0298 244.753 57.8979C244.88 57.7661 244.943 57.5757 244.943 57.3267V54.7632Z" fill="white"/>
</g>
<defs>
<filter id="filter0_d_727_466" x="18" y="23" width="370" height="429" filterUnits="userSpaceOnUse" color-interpolation-filters="sRGB">
<feFlood flood-opacity="0" result="BackgroundImageFix"/>
<feColorMatrix in="SourceAlpha" type="matrix" values="0 0 0 0 0 0 0 0 0 0 0 0 0 0 0 0 0 0 127 0" result="hardAlpha"/>
<feMorphology radius="4" operator="dilate" in="SourceAlpha" result="effect1_dropShadow_727_466"/>
<feOffset dx="-5"/>
<feGaussianBlur stdDeviation="4.5"/>
<feComposite in2="hardAlpha" operator="out"/>
<feColorMatrix type="matrix" values="0 0 0 0 0 0 0 0 0 0 0 0 0 0 0 0 0 0 0.25 0"/>
<feBlend mode="normal" in2="BackgroundImageFix" result="effect1_dropShadow_727_466"/>
<feBlend mode="normal" in="SourceGraphic" in2="effect1_dropShadow_727_466" result="shape"/>
</filter>
<linearGradient id="paint0_linear_727_466" x1="3.80263e-06" y1="29.5" x2="380" y2="409.5" gradientUnits="userSpaceOnUse">
<stop stop-color="#114D00"/>
<stop offset="0.504808" stop-color="#6CDE4C"/>
<stop offset="1" stop-color="#3B712C"/>
</linearGradient>
<clipPath id="clip0_727_466">
<rect width="380" height="439" rx="9" fill="white"/>
</clipPath>
</defs>
</svg>
