<svg width="380" height="439" viewBox="0 0 380 439" fill="none" xmlns="http://www.w3.org/2000/svg">
<g clip-path="url(#clip0_728_528)">
<rect width="380" height="439" rx="9" fill="url(#paint0_linear_728_528)"/>
<g filter="url(#filter0_d_728_528)">
<path d="M36 52C36 43.1634 43.1634 36 52 36H380V439H36V52Z" fill="#0D0D0D"/>
</g>
<circle cx="56" cy="54" r="5" fill="#FF0000"/>
<circle cx="74" cy="54" r="5" fill="#FFDD00"/>
<circle cx="92" cy="54" r="5" fill="#3B712C"/>
<line x1="42" y1="66.5" x2="475" y2="66.5" stroke="#1F1F21"/>
<path d="M193.896 59.0405C193.896 59.1772 193.871 59.3042 193.822 59.4214C193.773 59.5386 193.705 59.6411 193.617 59.729C193.534 59.812 193.434 59.8779 193.317 59.9268C193.2 59.9756 193.073 60 192.936 60H186.066C185.89 60 185.7 59.9805 185.495 59.9414C185.294 59.8975 185.094 59.8315 184.894 59.7437C184.699 59.6558 184.511 59.5435 184.33 59.4067C184.149 59.2651 183.988 59.0967 183.847 58.9014C183.71 58.7012 183.6 58.4717 183.517 58.2129C183.434 57.9492 183.393 57.6538 183.393 57.3267V52.1704C183.393 51.9946 183.412 51.8066 183.451 51.6064C183.495 51.4014 183.561 51.2012 183.649 51.0059C183.737 50.8057 183.852 50.6152 183.993 50.4346C184.135 50.2539 184.303 50.0952 184.499 49.9585C184.699 49.8169 184.928 49.7046 185.187 49.6216C185.446 49.5386 185.739 49.4971 186.066 49.4971H193.808V51.4014H186.066C185.817 51.4014 185.626 51.4673 185.495 51.5991C185.363 51.731 185.297 51.9263 185.297 52.1851V57.3267C185.297 57.5708 185.363 57.7612 185.495 57.8979C185.631 58.0298 185.822 58.0957 186.066 58.0957H191.991V55.708H186.923V53.7891H192.936C193.073 53.7891 193.2 53.8159 193.317 53.8696C193.434 53.9185 193.534 53.9868 193.617 54.0747C193.705 54.1626 193.773 54.2651 193.822 54.3823C193.871 54.4946 193.896 54.6167 193.896 54.7485V59.0405ZM199.147 60H198.297C198.024 60 197.731 59.9536 197.418 59.8608C197.111 59.7681 196.823 59.6167 196.554 59.4067C196.286 59.1919 196.063 58.916 195.888 58.5791C195.712 58.2373 195.624 57.8198 195.624 57.3267V48.7354H197.528V57.3267C197.528 57.561 197.602 57.749 197.748 57.8906C197.895 58.0273 198.078 58.0957 198.297 58.0957H199.147V60ZM208.983 57.3267C208.983 57.6538 208.942 57.9492 208.859 58.2129C208.776 58.4717 208.666 58.7012 208.529 58.9014C208.393 59.0967 208.234 59.2651 208.053 59.4067C207.873 59.5435 207.682 59.6558 207.482 59.7437C207.287 59.8315 207.086 59.8975 206.881 59.9414C206.681 59.9805 206.491 60 206.31 60H202.875C202.611 60 202.323 59.9536 202.011 59.8608C201.698 59.7681 201.408 59.6167 201.139 59.4067C200.875 59.1919 200.653 58.916 200.473 58.5791C200.297 58.2373 200.209 57.8198 200.209 57.3267V54.7485C200.209 54.2603 200.297 53.8477 200.473 53.5107C200.653 53.1689 200.875 52.8931 201.139 52.6831C201.408 52.4683 201.698 52.3145 202.011 52.2217C202.323 52.1289 202.611 52.0825 202.875 52.0825H206.31C206.798 52.0825 207.213 52.1704 207.555 52.3462C207.897 52.522 208.173 52.7441 208.383 53.0127C208.593 53.2764 208.744 53.5645 208.837 53.877C208.935 54.1895 208.983 54.48 208.983 54.7485V57.3267ZM207.079 54.7632C207.079 54.4995 207.013 54.3042 206.881 54.1772C206.75 54.0503 206.559 53.9868 206.31 53.9868H202.89C202.636 53.9868 202.443 54.0527 202.311 54.1846C202.179 54.3115 202.113 54.4995 202.113 54.7485V57.3267C202.113 57.5757 202.179 57.7661 202.311 57.8979C202.443 58.0298 202.636 58.0957 202.89 58.0957H206.31C206.569 58.0957 206.762 58.0298 206.889 57.8979C207.016 57.7661 207.079 57.5757 207.079 57.3267V54.7632ZM219.34 57.3267C219.34 57.5073 219.318 57.6978 219.274 57.8979C219.235 58.0981 219.171 58.2983 219.083 58.4985C218.996 58.6938 218.881 58.8818 218.739 59.0625C218.603 59.2432 218.434 59.4043 218.234 59.5459C218.039 59.6826 217.812 59.7925 217.553 59.8755C217.294 59.9585 217.001 60 216.674 60H213.239C213.058 60 212.868 59.9805 212.667 59.9414C212.467 59.8975 212.267 59.8315 212.067 59.7437C211.872 59.6558 211.684 59.5435 211.503 59.4067C211.322 59.2651 211.161 59.0967 211.02 58.9014C210.883 58.7012 210.773 58.4717 210.69 58.2129C210.607 57.9492 210.565 57.6538 210.565 57.3267V48.7354H212.47V57.3267C212.47 57.561 212.543 57.749 212.689 57.8906C212.836 58.0273 213.019 58.0957 213.239 58.0957H216.674C216.913 58.0957 217.099 58.0249 217.23 57.8833C217.367 57.7417 217.436 57.5562 217.436 57.3267V54.7485C217.436 54.5093 217.365 54.3237 217.223 54.1919C217.082 54.0552 216.898 53.9868 216.674 53.9868H213.239V52.0825H216.674C216.854 52.0825 217.045 52.1045 217.245 52.1484C217.445 52.1875 217.643 52.251 217.838 52.3389C218.039 52.4268 218.229 52.5415 218.41 52.6831C218.59 52.8198 218.749 52.9883 218.886 53.1885C219.022 53.3838 219.132 53.6108 219.215 53.8696C219.298 54.1284 219.34 54.4214 219.34 54.7485V57.3267ZM229.14 57.3779C229.14 57.6416 229.093 57.9272 229 58.2349C228.908 58.5376 228.756 58.8208 228.546 59.0845C228.341 59.3433 228.07 59.5605 227.733 59.7363C227.401 59.9121 226.996 60 226.518 60H223.083C222.819 60 222.533 59.9536 222.226 59.8608C221.923 59.7681 221.64 59.6191 221.376 59.4141C221.117 59.2041 220.9 58.9331 220.724 58.6011C220.548 58.2642 220.46 57.8564 220.46 57.3779C220.46 57.1143 220.507 56.8286 220.6 56.521C220.692 56.2134 220.841 55.9302 221.046 55.6714C221.256 55.4077 221.527 55.188 221.859 55.0122C222.196 54.8364 222.604 54.7485 223.083 54.7485H226.518V56.5649H223.083C222.824 56.5649 222.624 56.6455 222.482 56.8066C222.34 56.9629 222.27 57.1582 222.27 57.3926C222.27 57.6416 222.35 57.8369 222.511 57.9785C222.677 58.1152 222.873 58.1836 223.097 58.1836H226.518C226.776 58.1836 226.977 58.1055 227.118 57.9492C227.26 57.793 227.331 57.5977 227.331 57.3633V54.7046C227.331 54.4556 227.252 54.2578 227.096 54.1113C226.945 53.9648 226.752 53.8916 226.518 53.8916H222.335V52.0825H226.518C226.781 52.0825 227.064 52.1289 227.367 52.2217C227.675 52.3145 227.958 52.4658 228.217 52.6758C228.48 52.8809 228.7 53.1519 228.876 53.4888C229.052 53.8208 229.14 54.2261 229.14 54.7046V57.3779ZM234.245 60H233.395C233.122 60 232.829 59.9536 232.516 59.8608C232.208 59.7681 231.92 59.6167 231.652 59.4067C231.383 59.1919 231.161 58.916 230.985 58.5791C230.81 58.2373 230.722 57.8198 230.722 57.3267V48.7354H232.626V57.3267C232.626 57.561 232.699 57.749 232.846 57.8906C232.992 58.0273 233.175 58.0957 233.395 58.0957H234.245V60Z" fill="white"/>
<mask id="mask0_728_528" style="mask-type:luminance" maskUnits="userSpaceOnUse" x="36" y="219" width="353" height="363">
<path d="M36 219H389V582H36V219Z" fill="white"/>
</mask>
<g mask="url(#mask0_728_528)">
<path d="M361.895 304.982C361.91 304.948 361.927 304.922 361.933 304.899C362.149 304.323 361.858 303.679 361.282 303.457C361.164 303.414 361.049 303.477 360.926 303.469C328.676 252.815 272.063 219.109 207.69 219.109C166.407 219.109 128.315 232.988 97.7748 256.285C97.4208 256.354 97.1705 256.57 97.0151 256.883C53.9364 290.117 26.1123 342.201 26.1123 400.691C26.1123 500.808 107.567 582.258 207.69 582.258C307.807 582.258 389.262 500.805 389.262 400.691C389.262 365.576 379.219 332.794 361.895 304.982ZM357.933 490.043C347.588 496.276 335.07 501.711 320.88 506.244C324.822 488.803 327.208 472.291 328.296 456.66C343.343 451.676 356.419 445.696 366.934 438.925C367.331 451.282 367.021 463.175 366.258 474.314C363.743 479.707 360.969 484.961 357.933 490.043ZM134.111 558.014C130.01 553.85 126.195 549.589 122.638 545.235C133.912 548.311 147.167 551.275 161.852 553.54C166.039 560.348 170.913 566.782 176.571 572.727C161.719 570.054 147.518 565.505 134.212 559.327C134.453 558.895 134.468 558.374 134.111 558.014ZM130.713 557.658C119.714 552.242 109.378 545.687 99.8265 538.173C105.159 540.047 111.628 542.13 119.009 544.219C122.615 548.797 126.511 553.278 130.713 557.658ZM120.313 542.268C111.93 531.558 105.167 520.335 100.016 508.598C114.218 513.061 130.077 516.606 146.977 519.17C150.157 530.415 154.542 541.111 160.335 551.039C145.196 548.633 131.668 545.462 120.313 542.268ZM45.502 433.044C45.5049 447.688 47.3725 463.129 51.5652 479.33C42.5984 461.584 36.564 442.137 34.1065 421.602C37.1453 425.588 40.9726 429.398 45.502 433.044ZM55.5105 485.295C50.2876 467.543 47.9221 450.715 47.7696 434.802C57.6457 442.226 70.5118 448.824 85.6972 454.375C86.2008 472.058 89.6598 488.932 96.028 504.934C79.8958 499.504 66.0744 492.895 55.5105 485.295ZM57.3896 376.744C67.4212 383.302 80.0196 389.143 94.5259 394.061C89.4526 410.644 86.2094 427.674 85.6828 444.836C85.6138 447.144 85.6138 449.443 85.6368 451.722C70.3161 446.047 57.4155 439.343 47.7351 431.841C47.8732 411.983 51.4789 393.586 57.3896 376.744ZM49.1163 327.076C52.8803 321.062 56.9752 315.391 61.3176 310.015C65.1881 316.536 71.5938 322.616 80.0829 328.11C70.6988 341.62 62.3853 356.727 56.2501 373.36C48.5293 367.973 42.5438 362.125 38.6474 355.919C41.2949 345.922 44.82 336.282 49.1163 327.076ZM57.5968 311.06C58.3421 309.82 59.122 308.605 59.8932 307.379C59.9795 307.564 60.063 307.745 60.1436 307.923C59.2975 308.962 58.4285 309.992 57.5968 311.06ZM116.54 251.508C116.839 251.453 117.222 251.425 117.878 251.396C119.415 251.318 118.091 252.017 117.878 252.579C117.674 253.137 116.209 254.95 115.294 255.787C114.39 256.627 113.763 257.183 113.133 259.203C112.511 261.223 113.133 260.737 113.763 259.551C114.39 258.368 115.711 257.393 118.019 255.646C120.316 253.905 119.553 254.809 120.741 254.25C121.924 253.695 122.831 253.14 124.367 252.299C125.904 251.459 125.133 251.744 126.249 250.481C127.363 249.229 128.065 249.37 129.386 248.32C130.713 247.275 131.409 247.137 131.964 246.579C132.525 246.023 132.807 245.808 133.441 244.901C134.062 243.995 134.905 243.862 135.671 242.743C136.436 241.624 136.853 241.624 137.487 240.786C137.567 240.68 137.579 240.599 137.628 240.51C141.012 239.022 144.442 237.607 147.935 236.335C148.83 238.021 150.111 239.644 151.742 241.189C145.386 244.015 138.738 247.223 131.953 250.835C131.754 250.875 131.536 250.924 131.274 250.97C130.664 251.076 130.946 251.039 130.468 251.615C127.947 252.976 125.403 254.403 122.859 255.882C122.315 256.037 121.766 256.564 120.949 256.837C120.108 257.111 119.97 257.393 119.133 257.951C119.072 257.988 119.104 258.078 119.058 258.127C113.657 261.367 108.244 264.843 102.868 268.618C101.616 266.8 100.684 264.921 100.045 263.018C105.32 258.883 110.808 255.025 116.54 251.508ZM119.254 260.587C119.346 261.019 119.403 261.433 119.274 261.715C118.854 262.69 119.274 261.715 118.295 261.853C117.472 261.971 117.19 262.195 116.14 262.512C117.185 261.862 118.223 261.214 119.254 260.587ZM287.68 248.659C288.745 249.733 289.747 250.682 290.478 250.97C291.87 251.531 292.981 252.366 294.242 253.341C295.493 254.328 302.754 263.111 302.754 263.111C302.754 263.111 303.174 268.972 307.775 270.224C310.938 271.093 312.992 271.951 314.319 272.719C312.149 274.949 309.539 277.093 306.518 279.127C303.611 276.163 300.708 273.358 297.85 270.753C286.219 260.184 274.377 251.876 263.393 245.313C265.358 244.124 267.111 242.864 268.584 241.549C275.079 243.747 281.554 246.127 287.68 248.659ZM318.943 273.714C321.453 273.015 321.312 273.853 324.238 275.671C327.171 277.487 326.756 276.65 328.008 279.858C329.268 283.067 329.542 280.836 329.542 285.018C329.542 289.205 332.466 291.852 332.051 294.643C331.637 297.434 333.242 299.253 332.097 301.621C330.932 303.992 329.119 304.83 330.247 306.228C331.358 307.624 330.799 307.342 333.455 307.903C336.1 308.458 341.265 309.713 342.664 310.827C344.057 311.943 344.483 313.9 343.775 314.875C343.078 315.851 342.517 315.71 339.035 318.084C338.287 318.585 337.657 318.927 337.061 319.238C333.706 313.509 330.209 308.125 326.609 303.1C327.392 302.643 328.077 302.044 328.333 301.259C328.615 300.416 327.781 300.971 328.333 299.486C328.894 297.996 328.428 299.207 328.894 297.996C329.363 296.787 329.45 296.232 329.45 296.232C329.45 296.232 330.189 295.573 330.376 295.204C330.569 294.833 330.647 294.652 330.376 293.44C330.103 292.226 330.376 292.594 329.536 291.671C328.699 290.741 328.232 290.367 327.493 290.091C326.753 289.812 326.374 289.625 325.907 289.538C325.447 289.443 325.447 289.812 324.609 289.256C323.772 288.701 323.545 288.416 322.543 288.137C321.542 287.861 321.64 287.953 320.422 287.395C319.205 286.836 318.748 286.551 318.282 286.367C317.815 286.186 319.113 287.3 317.815 286.186C316.518 285.067 316.897 285.53 316.518 285.067C316.141 284.603 316.417 285.346 315.585 283.95C314.748 282.554 314.748 282.554 314.748 282.554L313.533 281.901C313.533 281.901 313.913 281.357 312.984 281.53C312.595 281.602 312.146 281.901 311.585 281.53C311.03 281.162 310.745 280.224 310.466 280.601C310.23 280.929 309.237 281.219 309.493 282.247C308.99 281.72 308.492 281.182 307.997 280.661C311.105 278.557 313.795 276.342 316.048 274.031C316.682 274.612 316.756 274.325 318.943 273.714ZM349.363 312.645C348.802 311.391 348.802 308.458 351.311 308.317C353.084 308.222 355.441 309.42 356.707 310.145C355.052 312.657 353.009 315.106 350.589 317.474C350.399 314.306 349.878 313.825 349.363 312.645ZM351.76 355.795C351.924 357.383 351.59 359.21 351.59 360.361C351.59 361.619 350.198 363.153 349.639 365.809C349.078 368.456 347.959 367.063 347.959 372.367C347.959 375.003 347.798 379.026 348.085 382.956C341.216 386.3 333.617 389.396 325.363 392.185C322.23 373.65 317.297 356.952 311.349 342.051C322.022 338.316 331.381 333.986 339.136 329.163C339.968 330.282 340.638 331.37 340.981 332.74C341.409 334.411 341.959 335.393 342.946 335.954C343.162 336.075 343.357 336.121 343.568 336.144C346.644 342.624 349.378 349.191 351.76 355.795ZM266.397 447.06C266.109 446.96 265.862 446.882 265.508 446.735C263.137 445.757 262.576 447.426 262.576 446.183C262.576 444.914 262.576 445.342 261.879 444.364C261.174 443.386 259.922 443.107 258.11 442.399C256.291 441.702 256.99 442.266 256.291 442.266C255.594 442.266 254.76 442.681 253.223 441.429C251.687 440.177 253.223 441.429 253.082 441.015C252.941 440.594 253.782 439.748 253.782 439.748C253.782 439.748 253.782 439.748 252.941 439.748C252.104 439.748 251.83 439.199 251.269 438.638C250.717 438.076 249.738 437.236 248.487 437.236C247.226 437.236 247.779 437.518 246.668 437.944C245.549 438.356 241.505 438.356 241.505 438.356C241.505 438.356 240.116 438.356 238.996 438.356C237.877 438.356 238.15 438.356 237.177 438.356C236.199 438.356 234.386 437.944 234.386 437.944C234.386 437.944 233.549 437.38 232.015 436.831C230.484 436.278 231.319 435.993 229.917 435.852C228.527 435.714 228.665 436.831 227.969 437.803C227.27 438.782 227.969 437.803 226.991 438.356C226.012 438.917 226.291 439.895 226.435 440.312C226.57 440.735 226.435 441.987 226.435 441.987C226.435 441.987 225.037 442.548 224.199 442.125C223.359 441.705 224.619 438.505 224.619 437.377C224.619 436.275 224.619 437.377 224.752 436.407C224.901 435.429 226.012 435.015 225.871 434.589C225.739 434.169 223.641 435.708 223.086 435.849C222.524 435.99 220.85 437.11 218.76 438.632C216.663 440.174 217.5 439.331 216.381 439.613C215.27 439.892 215.27 439.892 214.297 441.285C213.313 442.678 213.736 442.263 213.313 442.543C212.899 442.816 211.362 446.174 211.362 446.174L209.546 445.619C209.546 445.619 209.546 445.619 208.43 444.494C207.316 443.383 208.43 441.426 207.69 440.592C207.523 440.413 207.152 440.413 206.686 440.502C206.631 433.36 206.605 426.183 206.617 418.981C206.855 419.073 207.161 419.159 207.69 419.309C209.546 419.804 208.43 419.657 209.546 419.804C210.666 419.945 210.104 420.917 211.635 419.804C213.175 418.684 213.175 419.384 213.175 418.684C213.175 417.988 211.359 416.728 210.176 417.295C208.717 417.977 207.034 416.88 206.622 417.295C206.622 415.243 206.631 413.191 206.637 411.137C206.95 411.145 207.267 411.145 207.572 411.145C207.422 411.355 207.273 411.531 207.687 411.85C208.427 412.411 205.397 411.991 207.748 413.243C210.104 414.503 209.958 414.503 211.635 414.362C213.313 414.221 213.307 415.044 214.853 414.431C216.378 413.807 217.776 412.961 217.776 412.961C217.776 412.961 219.586 412.69 217.08 411.991C215.261 411.479 214.041 411.479 212.973 411.16C231.871 411.042 250.187 409.761 267.425 407.447C267.663 419.893 267.353 433.11 266.397 447.06ZM186.942 423.994C185.831 423.712 179.549 423.712 178.157 423.712C176.761 423.712 178.439 420.353 178.574 419.66C178.715 418.969 179.132 417.712 179.417 416.877C179.702 416.043 180.11 415.344 180.528 414.365C180.948 413.395 180.801 413.528 181.233 412.555C181.647 411.577 181.929 411.298 182.064 410.598C182.096 410.466 182.116 410.365 182.145 410.265C189.449 410.731 196.884 411.027 204.421 411.125C204.375 421.199 204.395 431.271 204.473 441.253C203.066 441.838 201.584 442.551 200.904 442.684C199.512 442.966 198.666 442.825 197.696 442.684C196.717 442.551 194.764 441.432 194.205 440.874C193.653 440.312 192.815 439.616 192.815 439.616C192.815 439.616 191.972 438.356 191.558 437.797C191.135 437.236 191.282 436.969 191.002 436.546C190.72 436.125 191.135 433.199 191.135 432.226C191.135 431.239 192.113 430.405 191.975 429.849C191.831 429.288 188.061 424.264 186.942 423.994ZM171.877 415.197C171.175 415.758 170.344 415.893 168.528 415.893C166.715 415.893 165.596 415.893 164.479 415.761C163.368 415.62 162.948 415.482 162.246 415.2C161.552 414.926 159.173 414.647 157.642 413.39C156.108 412.132 157.642 413.39 157.086 411.991C156.525 410.598 156.108 410.034 154.988 408.924C154.494 408.426 154.071 407.928 153.737 407.456C161.043 408.44 168.542 409.234 176.2 409.833C175.282 410.27 175.794 410.446 174.948 410.869C173.826 411.421 174.108 411.988 172.574 414.639C171.034 417.295 172.574 414.641 171.877 415.197ZM326.468 302.651C326.468 302.651 326.414 302.712 326.382 302.767C324.825 300.62 323.263 298.528 321.686 296.511C321.553 295.918 321.484 295.682 320.811 295.397C318.753 292.784 316.661 290.263 314.572 287.861C315.787 288.2 315.87 288.022 316.423 288.416C317.084 288.876 317.269 289.901 317.922 290.278C318.575 290.649 319.686 290.646 320.618 290.83C321.553 291.017 321.553 291.291 321.925 291.671C322.296 292.045 322.523 292.879 322.555 293.161C322.569 293.44 322.762 294.318 323.035 294.623C323.315 294.925 323.044 295.204 323.784 295.858C324.523 296.511 324.336 296.574 325.369 296.821C326.391 297.072 326.391 297.072 326.391 297.072C326.391 297.072 326.578 297.345 326.391 298.462C326.195 299.587 326.468 302.651 326.468 302.651ZM315.594 292.482C315.087 293.268 314.526 294.05 314.941 294.623C315.502 295.391 315.036 295.952 316.06 296.695C317.084 297.437 316.906 297.437 317.358 298.001C317.824 298.554 316.992 299.492 317.919 300.421C318.851 301.348 318.756 302.378 320.051 301.817C321.355 301.262 320.627 302.372 321.404 300.698C321.507 300.47 321.628 300.303 321.729 300.171C326.673 306.697 331.136 313.391 335.13 320.208C334.212 320.674 333.795 321.062 333.996 321.995C334.33 323.425 336.281 325.692 337.651 327.287C330.063 331.94 320.877 336.138 310.437 339.784C303.971 324.049 296.414 310.372 288.722 298.735C287.226 296.459 285.701 294.263 284.175 292.099C292.665 289.173 300.031 285.74 306.095 281.924C309.43 285.377 312.601 288.897 315.594 292.482ZM181.466 407.988C181.457 407.988 181.443 407.988 181.431 407.988C171.705 407.344 162.211 406.38 153.04 405.137C153.04 405.085 153.04 405.042 153.04 404.872C153.04 404.452 153.04 402.915 153.04 401.531C153.04 400.13 153.317 399.289 153.04 397.897C152.764 396.504 153.599 396.645 153.878 395.943C154.151 395.244 154.577 395.528 156.108 394.409C157.642 393.293 156.108 392.314 155.829 391.9C155.555 391.48 155.691 391.062 155.691 390.366C155.691 389.661 156.393 389.805 156.393 389.388C156.393 388.968 161.135 386.455 163.65 385.618C166.157 384.784 164.623 385.066 166.157 384.925C167.688 384.784 167.972 385.483 171.072 387.017C174.159 388.55 172.574 387.152 173.69 387.017C174.807 386.87 175.647 387.017 176.623 387.017C177.595 387.017 178.013 386.455 178.154 386.038C178.295 385.618 177.316 385.06 177.316 384.643C177.316 384.225 179.132 384.507 179.964 384.507C180.792 384.507 181.921 384.507 183.451 384.507C184.985 384.507 185.687 384.643 186.384 385.342C187.08 386.044 187.641 386.455 189.313 387.301C190.985 388.136 190.424 387.434 191.402 387.434C192.381 387.434 192.381 387.434 193.359 387.434C194.335 387.434 193.915 388.553 194.059 389.805C194.2 391.065 194.617 391.903 194.617 391.903C194.617 391.903 194.617 391.903 194.617 393.572C194.617 395.249 195.028 394.832 195.457 395.108C195.871 395.382 197.966 399.439 199.641 399.16C201.313 398.878 200.476 398.599 201.037 397.756C201.592 396.921 201.73 394.547 201.73 394.547C201.73 394.547 200.758 393.293 200.476 392.734C200.199 392.179 199.641 390.363 199.506 389.52C199.365 388.68 199.224 387.428 198.945 387.014C198.663 386.594 198.945 384.64 198.812 383.109C198.663 381.572 199.365 381.431 199.509 380.873C199.644 380.32 200.761 379.48 201.043 379.057C201.319 378.634 202.574 377.805 203.132 376.962C203.494 376.427 204.11 376.093 204.778 375.759C204.614 386.168 204.493 396.731 204.441 407.341C203.181 406.78 201.322 405.816 201.322 405.816C201.322 405.816 199.923 404.596 198.815 404.317C197.696 404.038 196.162 404.317 194.764 404.317C193.371 404.317 190.3 404.814 189.883 405.816C189.469 406.826 188.905 408.083 188.905 408.083C188.905 408.083 189.466 408.083 190.3 408.083C191.135 408.083 191.135 407.663 191.972 407.387C192.815 407.105 192.674 405.724 193.788 406.135C194.905 406.544 196.441 405.586 197.414 406.135C198.387 406.685 199.923 408.083 199.923 408.083C199.923 408.083 200.202 407.387 200.628 408.083C200.775 408.334 201.198 408.596 201.699 408.846C194.847 408.722 188.11 408.426 181.466 407.988ZM168.056 270.785C170.344 270.509 170.062 269.671 172.289 268.972C174.528 268.273 174.663 267.295 175.641 267.853C176.623 268.408 175.362 269.525 176.758 269.81C178.154 270.089 178.436 271.3 179.967 270.903C181.506 270.509 180.243 271.484 181.506 270.509C182.758 269.53 183.175 270.92 182.758 269.53C182.341 268.138 180.798 267.295 180.525 266.043C180.243 264.788 179.693 266.003 179.967 264.279C180.243 262.558 180.108 262.279 180.384 261.436C180.666 260.598 180.666 260.325 180.666 259.482C180.666 258.645 181.077 258.929 178.853 258.645C178.7 258.627 178.559 258.636 178.416 258.636C179.403 257.511 180.367 256.44 181.325 255.37C183.391 254.794 181.59 255.275 183.592 254.74C184.113 254.604 184.401 254.561 184.579 254.555C184.66 254.57 184.744 254.593 184.83 254.604C184.867 254.63 184.893 254.639 184.942 254.625C186.202 254.846 187.512 255.022 188.81 255.212C188.741 255.502 189.112 255.393 189.541 255.819C190.015 256.273 188.896 256.132 190.015 256.273C191.126 256.414 189.874 256.273 191.126 256.414C192.387 256.553 192.105 257.111 192.942 256.414C193.037 256.334 193.097 256.288 193.175 256.224C191.506 259.951 189.731 264.029 187.909 268.282C187.276 268.995 187.385 268.889 187.587 269.047C186.513 271.545 185.44 274.135 184.338 276.793C183.849 276.822 184.151 276.224 184.151 276.224C184.151 276.224 184.151 274.831 183.316 274.408C182.482 273.994 183.316 274.408 182.062 274.687C180.801 274.969 181.23 274.828 180.528 274.549C179.831 274.267 178.715 273.994 177.452 273.297C176.2 272.595 176.623 273.015 175.788 272.595C174.954 272.172 174.807 271.893 174.111 270.917C173.417 269.948 172.442 271.896 172.016 272.178C171.604 272.457 168.531 273.297 168.531 273.297C168.531 273.297 168.531 273.297 168.531 272.736C168.531 272.181 167.555 272.181 167.555 272.181C167.555 272.181 167.256 272.25 166.81 272.31C167.221 271.807 167.644 271.289 168.056 270.785ZM200.067 247.764C199.917 249.025 200.761 249.439 201.178 249.511C201.595 249.583 201.595 250.976 201.595 250.976C201.595 250.976 198.663 252.648 198.378 252.233C198.28 252.069 197.992 251.876 197.673 251.684C198.427 250.023 199.163 248.426 199.874 246.901C199.995 247.2 200.093 247.482 200.067 247.764ZM212.758 244.277C213.181 243.995 214.15 241.485 214.297 240.786C214.432 240.09 214.297 238.976 214.297 238.139C214.297 237.301 213.031 237.019 212.053 236.743C211.883 236.697 211.733 236.712 211.586 236.72C211.788 232.611 211.949 229.437 212.053 227.385C213.624 229.253 216.15 232.427 219.267 236.899C218.904 237.126 218.504 237.419 218.288 237.627C218.009 237.909 216.34 238.369 216.237 238.743C216.15 239.114 215.865 239.952 215.865 239.952C215.865 239.952 216.605 240.691 215.865 241.163C215.126 241.621 214.85 243.672 215.212 244.044C215.583 244.415 215.871 244.599 215.678 245.068C215.494 245.534 214.381 246.553 214.101 246.74C213.819 246.927 212.795 247.764 212.7 248.513C212.614 249.252 213.08 250.371 213.362 251.025C213.635 251.669 214.28 250.835 214.191 252.415C214.147 253.186 214.254 253.917 214.556 254.4C213.29 254.429 212.024 254.466 210.749 254.466C210.896 251.203 211.028 248.187 211.16 245.396C211.563 244.993 212.418 244.498 212.758 244.277ZM210.179 312.087C210.409 313.126 209.509 313.647 208.467 314.099C208.556 311.379 208.645 308.689 208.735 306.05C209.615 306.528 209.457 306.784 210.176 308.738C210.942 310.832 209.822 310.55 210.179 312.087ZM196.715 253.773C196.789 253.81 196.838 253.827 196.905 253.856C196.827 253.853 196.766 253.842 196.694 253.83C196.697 253.816 196.706 253.793 196.715 253.773ZM208.407 256.668C208.355 257.934 208.309 259.223 208.24 260.552C208.055 260.432 207.889 260.305 207.69 260.181C206.809 259.623 204.66 259.479 202.991 259.479C201.319 259.479 199.083 261.151 197.969 261.85C196.85 262.555 197.969 261.85 196.435 265.338C194.902 268.828 196.85 266.457 197.132 267.85C197.411 269.246 197.132 267.85 197.411 268.546C197.693 269.248 198.812 269.666 199.509 271.058C200.202 272.457 199.647 272.037 199.509 273.297C199.368 274.549 198.948 274.828 198.11 276.08C197.27 277.34 197.555 277.058 196.441 277.481C195.319 277.893 195.739 277.34 195.739 277.34C195.739 277.34 196.018 274.264 195.88 273.85C195.739 273.435 195.88 272.457 195.319 272.73C194.764 273.012 194.067 273.571 193.653 272.871C193.233 272.172 193.371 271.893 193.371 271.893C193.371 271.893 191.975 271.056 191.696 270.641C191.42 270.221 191.975 269.387 191.975 269.387C191.975 269.387 192.818 268.129 192.818 267.709C192.818 267.292 192.818 266.316 192.818 266.316L192.536 264.5V263.203C192.64 262.964 192.746 262.713 192.847 262.477L193.794 261.85L195.886 261.016L196.309 259.197L197.138 257.945C197.138 257.945 200.631 258.083 201.186 258.083C201.739 258.083 204.953 258.222 205.517 258.222C206.038 258.222 206.303 256.82 206.332 256.619C207.02 256.642 207.713 256.656 208.407 256.668ZM210.179 270.65C210.801 270.92 211.083 271.902 211.638 273.441C212.199 274.972 211.92 274.693 212.337 274.693C212.758 274.693 213.598 275.671 213.598 275.671C213.598 275.671 215.687 277.487 215.687 278.598C215.687 279.711 215.273 279.714 214.576 280.272C213.868 280.828 213.598 281.668 213.457 282.505C213.316 283.343 214.018 284.736 213.183 284.877C212.337 285.012 212.337 285.012 210.182 285.012C209.903 285.012 209.67 285.029 209.489 285.058C209.67 279.988 209.871 275.15 210.058 270.581C210.084 270.595 210.148 270.633 210.179 270.65ZM179.992 299.253C179.987 299.118 179.967 299.029 179.967 298.83C179.967 297.437 180.669 296.6 181.083 295.069C181.506 293.535 181.923 294.091 184.856 291.852C187.779 289.625 186.525 291.158 187.644 290.879C188.761 290.6 188.482 290.741 189.175 289.207C189.874 287.671 190.994 288.367 192.666 287.533C194.335 286.698 192.666 287.533 194.335 286.698C196.012 285.858 194.335 286.698 194.2 285.162C194.059 283.628 193.08 284.045 194.896 284.045C196.715 284.045 196.297 283.349 196.297 283.349C196.297 283.349 196.297 283.349 196.85 282.37C197.408 281.392 197.828 282.647 198.246 282.647C198.66 282.647 199.506 282.647 200.758 281.947C202.01 281.245 202.856 280.834 203.546 280.275C204.245 279.717 204.386 279.573 204.66 278.18C204.942 276.791 204.107 276.926 203.966 275.95C203.822 274.972 204.384 274.831 204.243 273.994C204.102 273.156 204.102 272.736 204.102 272.736C204.102 272.736 204.102 272.037 204.519 271.061C204.936 270.089 205.221 270.92 206.056 270.509C206.887 270.092 207.31 270.368 207.687 269.81C207.716 269.758 207.799 269.781 207.851 269.758C207.463 279.084 207.066 289.553 206.671 300.879C197.448 300.758 188.519 300.203 179.992 299.253ZM197.817 256.216C197.802 257.217 197.52 257.111 196.715 257.111C196.047 257.111 195.587 257.338 194.965 257.689C195.207 257.119 195.463 256.576 195.707 256.014C196.418 256.083 197.103 256.164 197.817 256.216ZM188.703 272.112C188.922 272.313 189.126 272.506 189.181 272.88C189.322 273.858 189.181 272.88 188.764 273.576C188.346 274.27 188.197 274.552 187.402 275.231C187.831 274.181 188.266 273.133 188.703 272.112ZM206.602 303.109C206.47 307.051 206.338 311.083 206.205 315.206C205.566 315.655 205.434 316.13 205.224 317.385C204.945 319.054 205.923 318.36 205.788 320.872C205.638 323.382 205.638 322.13 204.525 323.523C203.408 324.915 202.856 324.222 202.01 324.078C201.175 323.94 200.343 321.284 200.064 319.471C199.782 317.658 200.34 317.658 200.197 315.845C200.064 314.032 199.5 314.176 198.102 313.195C196.709 312.217 196.292 312.64 194.893 312.217C193.497 311.802 193.359 311.94 191.546 311.106C189.731 310.266 191.27 309.986 190.289 308.87C189.313 307.756 188.332 307.474 187.074 306.778C185.823 306.079 184.85 305.52 184.007 305.244C183.169 304.965 183.031 304.125 182.887 302.735C182.841 302.289 182.698 301.995 182.513 301.739C190.269 302.534 198.32 303 206.602 303.109ZM183.733 334.132C184.295 334.132 185.964 332.878 188.205 331.424C188.205 331.424 188.205 331.424 189.04 331.899C189.877 332.368 189.04 331.899 188.899 332.317C188.764 332.734 189.598 332.734 190.295 333.85C190.997 334.967 194.623 337.338 194.338 338.04C194.061 338.736 194.338 338.04 189.592 338.736C184.856 339.436 189.592 338.736 188.205 338.595C186.801 338.46 186.801 337.482 185.964 337.206C185.129 336.924 185.267 336.227 183.592 336.086C181.923 335.948 183.592 336.086 182.062 336.227C180.528 336.365 181.362 336.506 180.108 336.227C178.856 335.948 178.856 335.528 178.856 335.528C178.856 335.528 183.181 334.132 183.733 334.132ZM231.33 300.116C230.87 299.345 230.458 298.672 229.914 298.134C229.083 297.293 229.914 298.134 228.944 299.532C227.966 300.925 228.944 299.532 229.16 300.088C229.183 300.131 229.16 300.2 229.137 300.257C227.172 300.398 225.18 300.493 223.18 300.588C222.605 300.272 222.001 299.843 221.411 299.247C220.291 298.128 221.27 297.849 220.991 296.456C220.717 295.063 220.85 295.76 219.871 295.342C218.899 294.925 218.619 294.925 218.205 294.226C217.785 293.527 216.665 293.248 215.834 292.971C214.988 292.689 214.018 292.689 211.923 292.413C209.825 292.131 210.804 292.83 210.182 293.668C209.834 294.131 209.428 294.853 209.086 295.955C209.166 293.74 209.238 291.564 209.322 289.429C209.604 289.406 209.891 289.337 210.179 289.205C211.083 288.784 212.199 287.527 212.199 287.527C212.199 287.527 213.592 288.229 215.126 289.625C216.657 291.017 217.644 291.852 218.614 293.109C219.586 294.367 220.432 294.928 223.215 293.668C226.006 292.413 224.061 293.532 226.006 293.109C227.966 292.692 226.562 291.852 226.006 291.158C225.454 290.459 224.475 290.318 223.083 289.763C221.684 289.207 221.825 288.784 223.083 288.923C224.334 289.064 225.868 289.064 227.684 288.502C229.5 287.95 228.383 286.977 228.383 286.977C228.383 286.977 226.153 286.131 223.92 284.321C221.684 282.508 222.521 282.788 222.248 281.953C221.969 281.113 224.067 281.536 224.619 281.536C225.172 281.536 225.871 282.514 227.27 283.769C228.662 285.021 228.101 283.493 228.101 283.067C228.101 282.649 227.549 280.278 226.991 278.739C226.435 277.208 224.478 278.042 223.782 277.628C223.083 277.208 220.291 274.696 220.012 274.27C219.739 273.858 219.589 268.69 218.619 267.997C217.647 267.295 216.381 267.018 215.549 266.325C214.703 265.626 213.592 264.926 212.758 264.23C212.004 263.597 211.135 262.665 210.409 262.072C210.49 260.23 210.565 258.434 210.645 256.708C215.535 256.702 220.283 256.452 224.878 256.02C225.906 257.027 226.944 258.109 227.684 258.745C228.89 259.77 230.297 259.948 230.475 262.65C230.662 265.346 231.5 265.07 232.795 265.07C234.098 265.07 235.12 265.626 235.402 265.813C235.675 266.003 234.757 266.84 234.478 267.484C234.196 268.138 233.172 268.886 234.098 270.368C235.031 271.858 233.367 272.791 235.454 272.506C236.956 272.307 237.845 271.202 238.406 270.63C238.639 271.142 238.881 271.677 239.12 272.195C239.068 272.719 239.002 273.274 238.936 273.812C238.749 275.389 237.223 277.999 239.192 279.677C241.169 281.349 241.54 282.091 243.117 282.836C243.413 282.969 243.638 283.116 243.865 283.257C245.756 287.918 247.597 292.876 249.376 298.114C243.569 298.98 237.54 299.647 231.33 300.116ZM216.996 254.317C218.404 253.528 219.894 252.461 220.991 252.697C222.101 252.933 221.796 253.209 222.605 253.971C220.752 254.118 218.884 254.239 216.996 254.317ZM248.147 288.053C249.192 288.96 249.333 289.348 250.852 289.901C252.616 290.554 251.963 291.112 252.984 291.95C254.009 292.793 254.754 292.689 256.334 292.689C257.92 292.689 258.57 294.186 259.41 294.361C260.239 294.551 260.53 294.833 261.174 294.361C261.825 293.901 261.825 295.02 261.825 293.248C261.825 291.481 262.204 292.508 261.825 290.459C261.453 288.41 260.063 283.205 258.757 280.883C257.453 278.557 258.104 278.652 259.223 277.628C260.334 276.604 261.543 276.886 261.543 275.116C261.543 273.346 260.518 272.978 261.543 270.65C261.954 269.715 262.389 269.378 262.731 269.079C268.711 275.637 274.771 282.897 280.647 290.997C271.934 293.789 262.179 296.085 251.638 297.754C250.495 294.401 249.336 291.17 248.147 288.053ZM208.513 254.429C205.382 254.4 202.297 254.273 199.281 254.049C198.761 253.258 201.638 253.6 202.289 253.206C202.991 252.783 205.359 253.617 205.359 253.617C205.359 253.617 206.622 253.899 207.69 253.758C208.179 253.689 208.32 253.75 208.366 253.827C208.418 253.695 208.49 253.471 208.571 253.226C208.55 253.638 208.533 254.023 208.513 254.429ZM197.543 246.636C196.602 246.118 196.073 245.69 195.428 245.684C194.62 245.672 195.595 245.949 194.62 245.672C193.644 245.396 192.525 245.684 192.525 245.684C191.969 246.375 192.246 245.534 191.969 246.375C191.687 247.212 191.687 248.714 192.246 248.665C192.807 248.605 191.969 248.187 192.807 248.605C193.644 249.025 192.939 249.025 193.644 249.025C194.338 249.025 194.251 248.576 194.787 248.659C195.313 248.74 194.202 248.046 195.313 248.74C195.802 249.045 196.084 249.183 196.315 249.284C195.705 250.61 195.06 252.052 194.418 253.462C194.401 253.456 194.366 253.425 194.366 253.425C194.366 253.425 194.306 253.497 194.24 253.589C193.949 253.551 193.656 253.528 193.368 253.497C193.368 253.471 193.359 253.456 193.368 253.425C193.503 251.807 193.503 251.807 193.503 251.807L192.948 251.097C192.948 251.097 192.554 250.947 191.774 251.097C190.997 251.255 189.886 252.233 189.955 252.648C190.007 252.996 190.444 252.639 190.174 253.079C189.259 252.95 188.326 252.826 187.42 252.685C187.454 252.544 187.486 252.423 187.509 252.21C187.647 250.976 187.509 249.606 187.509 249.606C187.509 249.606 187.708 248.832 188.237 247.787C195.546 239.923 201.592 233.892 205.445 230.165C203.549 233.958 200.798 239.606 197.543 246.636ZM218.337 354.641C219.183 353.521 220.294 355.202 223.221 353.107C226.153 351.012 224.337 352.267 224.619 351.576C224.901 350.874 224.619 350.733 224.619 350.042C224.619 349.343 225.172 348.227 225.172 347.807C225.172 347.384 226.012 346.828 226.847 346.132C227.681 345.438 227.966 345.579 229.224 345.015C230.475 344.46 231.034 343.899 231.448 343.631C231.877 343.349 232.294 342.371 234.944 340.693C237.589 339.021 235.077 341.669 234.798 342.371C234.524 343.067 232.153 345.015 232.565 346.975C232.988 348.926 233.264 347.53 234.798 347.251C236.329 346.975 238.705 344.601 239.123 343.899C239.546 343.197 243.033 340.555 242.895 340C242.754 339.439 242.754 338.739 242.754 338.739C242.754 338.739 241.503 338.322 239.831 337.485C238.15 336.647 239.831 337.485 237.318 336.783C234.8 336.086 237.318 336.783 236.199 335.531C235.08 334.279 236.199 335.531 234.668 334.975C233.134 334.417 234.668 334.975 234.668 334C234.668 333.022 236.067 333.295 237.177 331.427C238.297 329.554 237.877 330.086 237.177 329.252C236.481 328.417 236.331 329.114 234.8 329.114C233.267 329.114 233.134 329.252 230.763 329.948C228.386 330.653 230.763 329.948 229.785 331.43C228.806 332.912 229.088 332.463 228.386 333.024C227.687 333.58 226.993 334.003 224.343 334.285C221.69 334.558 224.343 334.285 224.755 333.439C225.178 332.599 224.755 333.439 226.156 331.43C227.549 329.419 227.414 330.233 228.104 329.255C228.812 328.276 230.202 328.003 231.18 327.301C232.159 326.599 232.855 326.884 234.251 326.599C235.649 326.325 238.585 326.599 241.37 326.464C244.153 326.325 243.741 326.046 244.438 325.206C245.137 324.369 245.972 322.697 246.256 321.718C246.538 320.74 247.235 320.878 247.514 320.467C247.787 320.044 249.324 318.648 249.186 317.811C249.039 316.976 248.907 316.142 248.208 315.716C247.511 315.304 246.818 315.304 245.416 314.743C244.023 314.188 244.305 314.461 244.305 312.789C244.305 311.117 244.305 312.789 243.885 312.648C243.471 312.507 241.373 311.535 239.698 310.832C238.023 310.133 238.867 310.694 237.054 310.277C235.241 309.86 235.373 306.928 234.674 306.231C234.075 305.636 233.37 303.748 232.576 302.24C238.593 301.751 244.475 301.083 250.127 300.226C251.163 303.336 252.187 306.53 253.166 309.843C254.892 315.627 256.538 321.88 258.087 328.55C257.566 328.017 257.485 328.043 256.996 327.514C256.374 326.815 258.115 326.884 256.095 326.466C254.072 326.049 253.376 325.908 252.82 326.049C252.259 326.19 251.911 326.121 251.911 326.121C251.911 326.121 251.701 326.049 251.422 325.77C251.14 325.497 250.792 324.789 250.792 324.236C250.792 323.684 250.792 322.985 250.792 322.564C250.792 322.15 251.074 321.658 250.723 321.724C250.374 321.802 250.026 321.724 250.026 321.724C248.907 323.333 247.655 324.026 247.715 324.518C247.79 325.007 247.574 325.77 247.715 326.121C247.862 326.469 247.761 326.887 247.664 327.445C247.583 328.006 247.298 327.934 247.1 328.984C246.884 330.029 246.464 330.803 246.464 331.076C246.464 331.355 246.185 331.496 246.464 332.259C246.746 333.027 244.582 332.679 246.746 333.027C248.907 333.378 248.213 332.889 250.443 333.027C252.674 333.165 252.052 332.817 254 332.538C255.957 332.259 256.512 331.77 256.933 331.836C257.347 331.911 256.443 332.581 256.095 333.154C255.744 333.727 256.996 333.724 257.911 333.724C258.564 333.724 258.889 334.003 259.289 333.954C260.461 339.413 261.543 345.148 262.512 351.156C248.53 353.202 233.658 354.46 218.263 354.785C218.286 354.721 218.3 354.693 218.337 354.641ZM261.166 332.086C261.212 331.919 261.174 331.744 261.042 331.514C259.269 323.477 257.327 316.032 255.307 309.204C254.348 305.984 253.356 302.893 252.351 299.854C263.094 298.122 273.033 295.731 281.919 292.822C283.606 295.181 285.283 297.555 286.924 300.047C294.489 311.517 301.948 325.007 308.331 340.512C295.418 344.854 280.673 348.356 264.708 350.817C263.638 344.244 262.455 338.006 261.166 332.086ZM282.878 290.292C276.535 281.493 269.974 273.588 263.505 266.578C263.499 266.408 263.505 266.279 263.499 266.089C263.304 262.46 264.15 263.764 264.705 262.739C265.266 261.712 263.787 260.224 262.288 259.301C260.797 258.368 257.54 256.132 256.524 254.74C255.94 253.948 254.294 251.948 252.723 250.233C255.81 249.131 258.628 247.894 261.145 246.553C272.325 253.143 284.449 261.591 296.342 272.402C299.211 275.009 301.931 277.674 304.581 280.37C298.616 284.1 291.318 287.449 282.878 290.292ZM250.979 248.461C250.472 247.992 250.029 247.621 249.733 247.482C248.343 246.835 249.275 248.51 246.941 245.808C244.625 243.12 243.505 243.393 242.472 243.019C241.457 242.654 240.622 242.185 239.405 241.166C238.199 240.139 239.039 240.703 237.733 239.955C236.426 239.212 236.162 238.755 233.828 237.169C232.452 236.231 231.258 236.251 230.478 236.409C225.16 232.355 220.663 229.267 217.396 227.149C218.004 227.293 218.743 227.469 219.425 227.636C227.014 230.015 241.632 235.333 258.875 245.232C256.495 246.392 253.868 247.482 250.979 248.461ZM227.526 236.979C227.324 236.939 226.858 236.706 225.828 236.044C223.221 234.372 221.65 233.719 220.993 234.001C220.729 234.11 220.458 234.26 220.216 234.386C218.763 232.352 217.431 230.548 216.306 229.103C219.181 230.971 222.988 233.581 227.526 236.979ZM209.31 237.474C208.188 237.673 206.461 238.985 205.638 239.393C204.973 239.727 204.007 240.444 202.248 241.834C206.076 233.779 208.83 228.378 209.871 226.355C209.765 228.43 209.572 232.214 209.31 237.474ZM181.696 251.632C180.939 251.474 180.208 251.298 179.475 251.125C179.552 251.059 179.587 251.051 179.699 250.97C181.23 249.718 180.669 250.607 181.923 249.606C183.181 248.605 181.23 249.439 183.181 248.599C185.132 247.762 185.132 247.762 185.132 247.762V246.231L182.922 246.369C182.764 246.642 183.736 244.697 181.365 246.369C178.991 248.044 178.018 247.762 177.736 248.182C177.457 248.605 176.485 249.606 176.485 249.606C176.485 249.606 174.954 248.654 175.092 249.606C175.115 249.796 175.123 249.911 175.129 250.038C173.17 249.5 171.313 248.915 169.529 248.297C184.197 238.924 196.458 232.441 203.466 228.968C198.712 233.581 190.985 241.347 181.696 251.632ZM179.503 253.566C179.299 253.773 179.193 253.977 178.856 254.461C178.154 255.439 176.341 255.157 178.154 255.439C178.2 255.448 178.228 255.453 178.272 255.462C177.244 256.619 176.234 257.744 175.184 258.955C175.037 258.834 174.948 258.624 174.948 258.23C174.948 256.417 174.108 257.954 174.948 256.417C175.788 254.881 176.482 253.626 175.923 253.485C175.365 253.344 173.69 253.485 173.69 253.485C172.439 253.767 169.926 253.767 168.396 255.022C166.853 256.276 166.577 256.135 165.598 257.393C164.623 258.647 164.068 258.647 163.785 259.065C163.503 259.482 161.834 260.282 162.666 260.581C163.503 260.878 163.785 260.141 164.764 260.581C165.742 261.019 166.58 261.994 166.58 261.994C166.58 261.994 166.58 262.555 166.721 263.111C166.853 263.666 165.04 265.064 165.184 265.482C165.322 265.899 164.767 267.015 165.184 267.853C165.584 268.661 165 268.469 166.197 269.565C165.397 270.535 164.606 271.496 163.788 272.489C163.463 272.5 163.337 272.486 163.092 272.322C162.669 272.04 162.669 271.061 162.669 271.061C162.669 271.061 163.929 270.224 163.929 269.81C163.929 269.392 163.788 268.831 163.788 268.831L162.81 267.577C162.81 267.577 161.279 266.043 161.063 265.623C160.839 265.203 159.742 264.918 159.742 264.918C159.742 264.918 159.46 263.249 159.46 261.85C159.46 260.457 158.065 260.734 158.065 260.734C158.065 260.734 156.954 260.734 155.976 260.734C154.994 260.734 154.439 261.151 153.742 261.292C153.086 261.424 152.266 261.306 150.453 261.295C156.165 257.142 161.734 253.333 167.008 249.9C170.793 251.318 174.954 252.567 179.503 253.566ZM148.681 262.604C148.715 262.572 148.747 262.549 148.781 262.526C148.741 262.549 148.73 262.572 148.681 262.604ZM207.69 458.597C207.293 458.743 207.132 459.008 206.913 459.256C206.853 455.515 206.804 451.757 206.758 447.987C206.838 448.229 206.89 448.407 206.89 448.407L208.289 449.098C208.294 449.098 208.435 458.312 207.69 458.597ZM210.366 408.947C210.107 408.947 209.86 408.947 209.604 408.938C209.537 408.883 209.486 408.834 209.408 408.783C208.573 408.083 209.143 407.39 207.184 407.522C206.945 407.545 206.832 407.56 206.654 407.583C206.72 396.435 206.841 385.316 207.02 374.384C207.54 374.001 208.035 373.624 208.706 373.201C209.822 372.502 208.706 373.201 210.179 371.532C211.638 369.855 210.104 370.131 210.179 369.017C210.24 367.904 210.942 363.015 211.779 363.438C212.617 363.849 211.779 363.438 213.598 363.573C215.414 363.711 213.598 363.573 214.303 362.036C214.994 360.503 215.834 360.364 216.11 359.668C216.383 358.977 216.665 358.278 217.083 357.038C233.1 356.765 248.469 355.521 262.866 353.452C265.275 368.925 266.932 386.182 267.376 405.229C249.384 407.649 230.199 408.947 210.366 408.947ZM265.068 353.13C281.283 350.681 296.175 347.162 309.226 342.777C315.171 357.654 320.1 374.349 323.214 392.898C307.352 398.078 289.231 402.167 269.597 404.924C269.143 385.883 267.485 368.623 265.068 353.13ZM261.238 244.006C252.898 239.155 245.177 235.385 238.441 232.45C246.867 234.732 256.435 237.517 266.121 240.726C264.697 241.868 263.085 242.976 261.238 244.006ZM204.686 225.883C197.981 229.126 183.932 236.34 166.862 247.353C162.594 245.695 158.945 243.799 156.045 241.742C176.876 232.769 194.11 227.921 201.961 225.952C202.87 225.929 203.774 225.903 204.686 225.883ZM164.465 248.933C158.948 252.541 153.184 256.504 147.239 260.88C147.233 260.647 147.262 260.423 147.178 260.181C146.899 259.338 146.626 258.363 146.2 257.669C145.783 256.967 145.648 255.997 145.363 255.019C145.081 254.043 145.222 254.043 144.661 253.065C144.108 252.087 143.13 251.108 142.845 250.274C142.566 249.433 142.289 249.433 141.455 249.574C140.62 249.715 140.617 249.433 139.915 249.715C139.558 249.856 139.374 249.744 139.017 249.655C144.004 247.14 148.891 244.867 153.607 242.792C156.485 245.068 160.139 247.128 164.465 248.933ZM126.528 256.417C126.111 256.97 125.829 256.97 125.271 257.255C125.133 257.324 125.032 257.301 124.949 257.217C125.498 256.906 126.036 256.619 126.586 256.308C126.563 256.345 126.56 256.371 126.528 256.417ZM113.277 274.552C113.691 274.552 112.718 275.248 112.016 275.568C111.547 275.792 111.395 276.532 111.306 277.162C110.796 276.773 110.298 276.399 109.824 276.011C110.776 275.562 112.946 274.552 113.277 274.552ZM113.97 277.901C114.39 277.901 115.642 277.202 115.642 277.202C115.642 277.202 117.317 276.506 117.461 275.671C117.605 274.837 118.019 279.573 118.019 279.573C118.019 279.573 118.261 280.802 118.385 281.841C116.278 280.635 114.316 279.383 112.526 278.094C113.139 278.014 113.777 277.901 113.97 277.901ZM119.982 286.177C120.261 287.012 120.667 288.238 120.531 288.787C120.385 289.346 120.252 290.042 119.823 290.603C119.415 291.161 119.415 294.511 118.848 295.072C118.295 295.624 118.848 296.465 118.436 298.139C118.019 299.814 118.848 300.237 118.848 300.237L118.436 302.329C118.436 302.329 117.737 304.703 117.317 305.541C116.903 306.378 116.618 307.353 116.618 307.353C116.618 307.353 117.035 310.145 116.065 310.982C115.087 311.822 116.065 310.982 115.642 311.399C115.225 311.817 115.09 313.068 114.808 314.052C114.531 315.028 116.065 317.12 116.206 317.813C116.341 318.516 116.341 319.209 116.206 319.773C116.065 320.329 116.759 321.865 116.341 322.844C115.924 323.822 114.664 328.705 113.967 330.095C113.274 331.496 111.737 333.586 110.759 334.981C109.841 336.299 109.625 337.044 108.319 339.341C98.7043 335.888 90.2439 331.948 83.1677 327.597C92.713 314.113 103.288 302.246 113.714 292.091C115.795 290.065 117.89 288.1 119.982 286.177ZM109.251 361.875C109.783 362.246 109.93 362.5 110.903 363.573C112.154 364.969 112.154 372.637 112.434 374.039C112.716 375.431 114.531 376.269 114.531 376.269C114.531 376.269 114.664 377.247 114.531 377.946C114.39 378.64 114.531 379.895 113.99 380.453C113.444 381.014 114.108 381.299 114.108 381.299C114.108 381.299 113.826 381.992 114.108 382.551C114.388 383.109 114.108 383.802 114.108 383.802C114.108 383.802 115.498 384.784 116.341 385.201C117.185 385.615 117.872 386.038 117.737 386.453C117.596 386.867 118.013 390.084 118.152 391.198C118.29 392.314 118.713 392.314 118.713 392.87C118.713 393.428 120.244 395.658 120.244 396.084C120.244 396.501 121.495 397.195 121.495 397.195H122.195C122.195 397.195 122.474 395.379 122.474 394.964C122.474 394.547 122.474 393.713 122.474 393.713C122.474 393.713 122.195 393.008 121.495 392.458C120.799 391.9 120.526 390.216 120.526 390.216C120.526 390.216 120.526 388.268 120.244 387.851C119.964 387.431 119.265 384.363 119.265 384.363L118.845 381.989C118.845 381.989 118.146 379.615 118.01 379.201C117.869 378.781 117.869 378.223 117.593 377.667C117.311 377.106 117.452 375.57 117.452 375.57L116.339 371.8C116.339 371.8 118.29 371.25 119.426 371.8C120.554 372.361 120.658 375.158 119.547 376.83C118.428 378.502 125.259 385.759 125.259 385.759C125.259 385.759 125.406 387.299 125.262 388.274C125.127 389.25 126.658 389.526 126.658 390.501C126.658 391.48 131.4 399.16 132.105 401.246C132.151 401.396 132.143 401.554 132.18 401.692C119.677 399.246 107.962 396.236 97.2856 392.731C100.606 382.211 104.667 371.904 109.251 361.875ZM132.336 403.951C132.258 405.269 132.025 406.714 132.108 408.498C132.243 411.574 135.32 413.387 135.32 413.387L138.666 415.758L141.461 416.728C141.461 416.728 142.215 417.151 143.38 417.758C141.127 433.587 139.835 449.754 139.97 465.69C120.805 462.487 103.191 458.015 87.8785 452.522C87.8324 450.004 87.8353 447.463 87.9245 444.908C88.4425 427.979 91.6511 411.165 96.6582 394.786C107.582 398.389 119.57 401.462 132.336 403.951ZM145.472 418.843C148.948 420.589 153.786 422.868 156.39 423.286C160.712 423.994 162.525 422.316 164.479 423.286C166.436 424.264 169.642 427.755 171.46 429.708C173.276 431.662 173.132 430.405 174.252 431.101C175.362 431.792 175.782 431.239 178.295 431.947C180.798 432.638 183.313 437.518 183.313 438.638C183.313 439.748 184.148 440.735 185.129 442.399C186.108 444.079 186.798 442.399 188.338 442.399C189.877 442.399 190.853 446.177 191.555 446.03C192.248 445.898 194.484 445.898 194.484 445.898C194.484 445.898 196.85 447.288 197.969 448.407L199.785 446.735L201.736 445.196L203.411 444.496C203.411 444.496 203.932 444.712 204.504 444.963C204.553 450.157 204.625 455.319 204.717 460.438C203.799 461.114 202.784 462.047 202.159 462.499C201.178 463.204 200.479 466.826 199.368 469.198C199.066 469.834 198.864 470.524 198.717 471.203C179.003 470.691 159.958 468.936 142.203 466.067C142.048 450.381 143.285 434.456 145.472 418.843ZM198.424 473.433C198.378 474.233 198.378 474.895 198.378 475.051C198.378 475.471 199.506 476.59 199.506 477.715C199.506 478.812 199.506 477.715 198.945 477.848C198.384 477.983 197.552 480.081 196.994 480.774C196.435 481.471 196.994 483.983 196.994 484.817C196.994 485.652 198.105 486.774 199.365 487.194C200.274 487.499 203.526 489.226 205.52 490.575C205.92 501.355 206.424 511.74 207.08 521.57C186.824 521.414 167.149 519.906 148.735 517.187C144.514 501.717 142.537 485.257 142.215 468.475C159.817 471.235 178.729 472.938 198.424 473.433ZM207.828 492.989C208.634 494.273 209.586 495.93 210.099 496.549C210.784 497.378 210.668 499.053 210.179 499.899C209.681 500.727 211.506 501.009 211.92 502.129C212.335 503.239 213.031 503.098 213.313 503.801C213.592 504.5 214.703 505.472 215.411 506.592C216.107 507.703 219.589 509.095 221.411 509.245C223.221 509.377 228.521 510.635 229.083 512.321C229.284 512.934 229.068 516.655 228.639 521.21C222.608 521.46 216.522 521.61 210.366 521.61C210.015 521.61 209.667 521.601 209.31 521.601C208.706 512.502 208.222 502.917 207.828 492.989ZM210.366 523.846C216.45 523.846 222.458 523.685 228.421 523.452C227.635 530.815 226.406 539.293 225.457 540.49C223.871 542.475 223.414 541.98 220.398 554.958C217.73 555.033 215.057 555.119 212.407 555.128C211.221 545.661 210.243 535.135 209.466 523.829C209.765 523.831 210.07 523.846 210.366 523.846ZM245.831 552.36C246.104 551.931 248.343 551.799 248.898 551.661C248.898 551.661 248.921 551.652 248.936 551.646C248.835 552.009 248.737 552.377 248.642 552.743C247.618 552.875 246.61 552.958 245.589 553.076C245.684 552.722 245.77 552.443 245.831 552.36ZM293.867 463.448C292.178 462.936 292.126 463.051 291.177 462.919C290.198 462.781 288.665 462.64 286.296 461.661C283.916 460.683 281.686 461.94 281.686 461.94L284.198 459.704C284.198 459.704 284.337 457.886 282.947 455.382C281.128 446.865 270.239 447.561 269.404 447.561C269.154 447.561 268.884 447.57 268.604 447.555C269.583 433.323 269.902 419.833 269.655 407.151C289.361 404.383 307.585 400.271 323.582 395.051C326.471 413.289 327.568 433.303 326.161 455.06C316.201 458.297 305.378 461.114 293.867 463.448ZM325.735 394.349C333.922 391.592 341.478 388.542 348.33 385.235C348.739 388.343 349.51 391.209 351.035 393.011C354.805 397.479 354.805 397.197 354.658 400.691C354.526 404.173 354.526 406.265 355.363 406.826C356.203 407.387 358.016 410.737 358.845 411.847C359.685 412.958 359.55 414.218 360.802 415.89C362.01 417.499 361.093 418.215 365.691 419.505C366.244 425.194 366.626 430.822 366.856 436.373C356.529 443.219 343.522 449.25 328.46 454.309C329.795 432.575 328.655 412.584 325.735 394.349ZM365.409 326.737C365.409 326.737 362.192 324.777 361.631 325.485C361.081 326.182 358.016 329.945 358.016 329.945C358.016 329.945 356.756 334.132 356.474 334.552C356.203 334.97 350.333 339.715 350.054 340.132C349.812 340.521 349.337 341.718 349.144 343.185C348.091 340.728 347.003 338.316 345.893 335.96C346.071 335.957 346.227 335.934 346.434 335.954C348.252 336.089 350.762 335.83 351.185 336.173C351.596 336.515 352.857 335.954 354.108 334.417C355.369 332.883 354.813 331.905 354.108 329.534C353.403 327.166 352.019 325.905 351.737 324.09C351.53 322.746 351.101 322.162 350.828 320.421C353.789 317.678 356.275 314.821 358.258 311.88C361.11 316.7 363.746 321.672 366.126 326.777L365.409 326.737ZM283.686 244.659C279.324 242.956 274.849 241.33 270.343 239.788C270.875 239.209 271.321 238.614 271.75 238.012C275.332 239.428 278.875 240.939 282.351 242.588C282.673 243.258 283.154 243.992 283.686 244.659ZM268 239.005C251.911 233.61 235.9 229.354 225.016 226.672C240.562 228.211 255.511 231.811 269.603 237.172C269.134 237.794 268.604 238.409 268 239.005ZM191.175 226.611C181.834 229.379 168.819 233.762 154.068 240.176C152.361 238.72 151.012 237.189 150.094 235.601C163.161 231.028 176.916 227.955 191.175 226.611ZM104.903 269.922C104.808 270.276 104.724 270.61 104.667 270.949C104.506 270.765 104.339 270.587 104.192 270.402C104.419 270.233 104.667 270.083 104.903 269.922ZM104.011 273.352C103.867 274.077 104.152 274.411 103.927 275.53C103.645 276.926 103.927 275.53 103.087 275.95C102.883 276.045 102.785 276.094 102.736 276.123C102.736 276.123 102.71 276.137 102.701 276.14C102.681 276.152 102.65 276.166 102.523 276.224C101.97 276.506 101.691 277.064 101.139 277.064C100.578 277.064 99.1762 277.901 99.1762 277.901C99.1762 277.901 97.9215 278.603 97.0841 278.603C96.2496 278.603 96.3849 279.3 95.4151 279.441C94.4396 279.576 94.1604 279.576 93.3201 279.576C92.4799 279.576 93.3201 280.978 93.3201 280.978C93.3201 280.978 96.2496 281.251 97.3604 281.113C98.4798 280.978 98.8999 280.836 99.7345 280.557C100.575 280.278 102.247 280.278 102.952 279.858C103.642 279.441 105.32 278.465 105.32 278.465C105.32 278.465 107.412 278.045 107.967 277.904C108.183 277.852 108.344 277.691 108.474 277.519C111.398 279.91 114.831 282.186 118.701 284.318C116.523 286.318 114.359 288.347 112.203 290.436C101.654 300.721 90.9432 312.729 81.2829 326.386C72.7477 320.872 66.4399 314.746 62.814 308.176C74.7132 293.832 88.3936 281.734 102.514 271.62C102.989 272.201 103.487 272.779 104.011 273.352ZM81.9793 329.295C89.1475 333.701 97.6539 337.706 107.294 341.211C106.696 342.411 106.837 342.503 106.837 342.503C106.837 342.503 107.271 348.091 106.998 350.324C106.719 352.555 106.854 357.714 106.998 359.398C107.061 360.114 107.185 360.439 107.386 360.672C102.704 370.865 98.5489 381.333 95.1676 392.024C80.621 387.091 68.0773 381.241 58.1695 374.657C64.2672 357.976 72.5722 342.834 81.9793 329.295ZM87.9677 455.21C103.285 460.625 120.845 464.993 139.987 468.121C140.292 484.855 142.217 501.317 146.353 516.822C129.159 514.163 113.121 510.479 98.828 505.872C92.1863 489.864 88.5806 472.938 87.9677 455.21ZM149.426 519.541C167.708 522.194 187.195 523.662 207.235 523.794C208.012 535.112 208.976 545.655 210.156 555.163C193.448 555.102 177.65 553.663 163.213 551.494C157.227 541.575 152.701 530.844 149.426 519.541ZM219.886 557.2C219.877 557.214 219.877 557.229 219.871 557.243C216.381 572.586 219.871 574.958 219.871 574.958C219.871 574.958 222.107 574.676 222.521 574.258C222.942 573.847 225.598 573.847 226.291 573.412C226.991 573.007 226.991 572.86 227.411 572.169C227.816 571.473 228.383 570.917 228.383 570.917C228.383 570.917 230.064 569.237 230.619 568.4C231.175 567.568 232.012 567.007 232.294 566.169C232.565 565.332 232.294 565.191 232.294 565.191C232.294 565.191 232.847 563.657 232.99 563.102C233.131 562.538 233.969 562.82 234.662 562.538C235.359 562.259 236.196 561.842 236.481 561.28C236.76 560.725 237.177 559.338 237.177 558.504C237.177 557.658 238.297 557.243 239.128 556.823C239.966 556.403 240.944 557.522 242.898 557.376C243.753 557.315 244.357 556.429 244.795 555.404C245.877 555.286 246.941 555.189 248.018 555.062C246.55 560.598 244.982 566.21 243.315 571.902C234.323 573.766 225.062 574.932 215.621 575.36C214.524 569.959 213.563 563.928 212.697 557.358C215.077 557.355 217.477 557.272 219.886 557.2ZM250.4 554.806C269.974 552.265 289.994 547.787 310.259 541.56C310.267 541.56 310.276 541.569 310.29 541.569C310.526 541.569 310.756 541.488 310.943 541.35C311.246 541.255 311.542 541.157 311.844 541.071C292.501 555.459 270.092 565.91 245.799 571.329C247.416 565.749 248.964 560.233 250.4 554.806ZM251.031 552.449C251.134 552.029 251.232 551.62 251.336 551.206C251.934 551.102 252.524 551.013 252.941 550.964C254.061 550.823 254.475 550.118 256.012 549.563C257.543 549.013 257.131 549.013 259.088 547.333C261.045 545.661 254.346 542.59 256.012 541.192C257.692 539.799 256.291 541.891 257.969 543.013C259.64 544.124 259.088 543.287 260.487 543.287C261.879 543.287 262.012 543.146 263.689 542.726C265.361 542.32 265.361 542.726 266.766 541.885C268.155 541.057 266.766 541.885 268.722 540.355C270.671 538.821 269.56 539.664 271.226 537.983C272.907 536.312 272.483 536.723 274.158 534.352C275.83 531.984 275.41 532.404 280.996 529.057C286.575 525.708 281.836 526.827 281.551 524.591C281.278 522.361 281.971 523.057 282.95 521.109C283.571 519.84 289.315 517.509 294.336 515.507C302.561 513.757 310.411 511.757 317.858 509.513C315.556 519.227 312.759 529.21 309.427 539.486C289.649 545.543 270.13 549.908 251.031 552.449ZM302.555 511.349C302.446 511.075 302.477 510.586 303.18 509.527C305.269 506.313 306.526 505.616 306.941 504.647C307.361 503.654 308.897 501.847 309.312 500.31C309.732 498.771 309.873 499.332 309.732 498.362C309.594 497.375 308.754 491.234 310.287 488.311C311.818 485.387 313.916 484.409 315.735 481.612C317.542 478.812 317.542 479.373 318.943 477.848C320.333 476.317 321.033 474.492 321.312 472.82C321.585 471.146 321.312 469.618 320.201 468.498C319.082 467.373 318.385 468.498 316.851 467.108C315.32 465.707 314.607 465.575 310.984 464.861C307.361 464.17 308.613 465.707 304.71 465.422C300.808 465.137 302.898 465.98 300.241 465.707C297.818 465.457 299.798 465.647 299.413 464.516C308.785 462.464 317.68 460.087 325.994 457.428C324.86 473.051 322.437 489.565 318.423 507.009C313.329 508.569 308.037 510.022 302.555 511.349ZM369.156 437.458C373.334 434.621 377.075 431.636 380.327 428.537C378.079 442.488 374.2 455.903 368.851 468.556C369.441 457.719 369.504 447.371 369.156 437.458ZM369.038 434.859C368.831 429.901 368.517 425.05 368.091 420.333C370.865 421.668 369.467 423.081 372.802 421.056C376.704 418.684 378.934 415.761 380.899 413.24C381.394 412.595 381.823 411.971 382.212 411.387C381.938 415.922 381.481 420.405 380.856 424.848C377.527 428.339 373.57 431.674 369.038 434.859ZM98.2093 264.454C98.9258 266.293 99.9359 268.092 101.176 269.847C87.1735 279.881 73.5822 291.843 61.7119 305.998C61.5766 305.71 61.4586 305.423 61.3378 305.132C71.4355 289.717 83.8987 275.982 98.2093 264.454ZM37.9165 358.799C42.0344 364.712 47.9739 370.286 55.4846 375.437C49.548 392.15 45.8531 410.374 45.5078 430.051C40.5236 425.893 36.5122 421.516 33.6 416.952C33.0993 411.597 32.8086 406.173 32.8086 400.691C32.8086 386.251 34.6043 372.229 37.9165 358.799ZM56.7364 488.811C67.519 496.094 81.2426 502.451 97.1589 507.651C102.091 519.325 108.592 530.542 116.667 541.235C108.868 538.959 102.235 536.709 96.9777 534.798C96.5805 534.666 96.2122 534.812 95.9158 535.054C80.3217 522.068 67.05 506.408 56.7364 488.811ZM180.416 573.412C174.384 567.427 169.161 560.932 164.724 553.974C178.844 556.02 194.223 557.355 210.453 557.387C211.304 563.965 212.274 569.997 213.35 575.421C211.468 575.473 209.586 575.556 207.69 575.556C198.415 575.556 189.305 574.822 180.416 573.412ZM316.823 537.178C315.214 537.707 313.614 538.173 312.005 538.68C315.277 528.421 318.06 518.433 320.322 508.736C333.496 504.615 345.343 499.743 355.372 494.164C344.96 510.549 331.922 525.092 316.823 537.178Z" fill="url(#paint1_linear_728_528)"/>
</g>
<path d="M133.688 166.67H141.305L146.545 179.44H146.81L152.05 166.67H159.668V189.215H153.679V176.181H153.503L148.483 189.039H144.872L139.852 176.093H139.676V189.215H133.688V166.67ZM162.568 189.215V166.67H172.344C174.061 166.67 175.503 166.901 176.67 167.363C177.845 167.826 178.729 168.479 179.323 169.323C179.925 170.167 180.226 171.161 180.226 172.306C180.226 173.135 180.043 173.891 179.676 174.574C179.316 175.256 178.81 175.829 178.156 176.291C177.503 176.746 176.74 177.062 175.867 177.238V177.458C176.835 177.495 177.716 177.741 178.509 178.196C179.301 178.643 179.932 179.263 180.402 180.056C180.872 180.841 181.107 181.766 181.107 182.83C181.107 184.063 180.784 185.16 180.138 186.122C179.499 187.083 178.589 187.839 177.408 188.389C176.226 188.94 174.817 189.215 173.181 189.215H162.568ZM168.689 184.327H171.551C172.579 184.327 173.349 184.136 173.863 183.755C174.377 183.366 174.634 182.793 174.634 182.038C174.634 181.509 174.513 181.061 174.27 180.694C174.028 180.328 173.683 180.049 173.236 179.858C172.795 179.667 172.263 179.572 171.639 179.572H168.689V184.327ZM168.689 175.785H171.199C171.735 175.785 172.208 175.7 172.619 175.531C173.03 175.363 173.349 175.121 173.577 174.805C173.812 174.482 173.929 174.089 173.929 173.627C173.929 172.93 173.68 172.398 173.181 172.031C172.682 171.656 172.05 171.469 171.287 171.469H168.689V175.785ZM189.132 189.215H182.527L189.969 166.67H198.335L205.777 189.215H199.172L194.24 172.878H194.064L189.132 189.215ZM187.899 180.32H200.317V184.9H187.899V180.32ZM207.948 189.215V166.67H217.68C219.353 166.67 220.817 166.974 222.072 167.583C223.327 168.192 224.303 169.069 225 170.214C225.698 171.359 226.046 172.732 226.046 174.332C226.046 175.946 225.687 177.308 224.967 178.416C224.256 179.524 223.254 180.361 221.962 180.926C220.678 181.491 219.177 181.773 217.46 181.773H211.647V177.018H216.227C216.946 177.018 217.559 176.93 218.065 176.753C218.579 176.57 218.971 176.28 219.243 175.884C219.522 175.487 219.661 174.97 219.661 174.332C219.661 173.686 219.522 173.161 219.243 172.757C218.971 172.346 218.579 172.045 218.065 171.855C217.559 171.656 216.946 171.557 216.227 171.557H214.069V189.215H207.948ZM221.158 178.867L226.795 189.215H220.146L214.641 178.867H221.158ZM232.046 189.567C231.195 189.567 230.464 189.27 229.855 188.676C229.253 188.074 228.956 187.344 228.964 186.485C228.956 185.648 229.253 184.933 229.855 184.338C230.464 183.744 231.195 183.447 232.046 183.447C232.853 183.447 233.565 183.744 234.182 184.338C234.805 184.933 235.121 185.648 235.128 186.485C235.121 187.057 234.97 187.578 234.677 188.048C234.391 188.511 234.016 188.881 233.554 189.16C233.092 189.432 232.589 189.567 232.046 189.567ZM263.811 175.124H257.602C257.558 174.61 257.441 174.144 257.25 173.726C257.066 173.308 256.81 172.948 256.479 172.647C256.156 172.339 255.764 172.104 255.301 171.943C254.839 171.774 254.314 171.69 253.727 171.69C252.7 171.69 251.83 171.939 251.118 172.438C250.414 172.937 249.878 173.653 249.511 174.585C249.151 175.517 248.972 176.636 248.972 177.942C248.972 179.322 249.155 180.478 249.522 181.41C249.896 182.335 250.436 183.032 251.14 183.502C251.845 183.964 252.692 184.195 253.683 184.195C254.248 184.195 254.755 184.125 255.202 183.986C255.65 183.839 256.039 183.63 256.369 183.359C256.699 183.087 256.967 182.76 257.173 182.379C257.386 181.99 257.529 181.553 257.602 181.069L263.811 181.113C263.738 182.067 263.47 183.039 263.007 184.03C262.545 185.014 261.888 185.924 261.037 186.76C260.193 187.589 259.147 188.257 257.899 188.764C256.652 189.27 255.202 189.523 253.551 189.523C251.481 189.523 249.625 189.079 247.981 188.191C246.344 187.303 245.049 185.997 244.095 184.272C243.148 182.548 242.675 180.438 242.675 177.942C242.675 175.432 243.159 173.319 244.128 171.601C245.097 169.877 246.403 168.574 248.047 167.693C249.691 166.805 251.525 166.361 253.551 166.361C254.975 166.361 256.285 166.556 257.481 166.945C258.677 167.334 259.727 167.903 260.63 168.651C261.532 169.392 262.259 170.306 262.809 171.392C263.36 172.478 263.694 173.722 263.811 175.124ZM288.429 177.942C288.429 180.452 287.941 182.57 286.965 184.294C285.989 186.012 284.671 187.314 283.013 188.202C281.354 189.083 279.505 189.523 277.464 189.523C275.409 189.523 273.553 189.079 271.894 188.191C270.243 187.296 268.929 185.99 267.953 184.272C266.984 182.548 266.5 180.438 266.5 177.942C266.5 175.432 266.984 173.319 267.953 171.601C268.929 169.877 270.243 168.574 271.894 167.693C273.553 166.805 275.409 166.361 277.464 166.361C279.505 166.361 281.354 166.805 283.013 167.693C284.671 168.574 285.989 169.877 286.965 171.601C287.941 173.319 288.429 175.432 288.429 177.942ZM282.132 177.942C282.132 176.592 281.952 175.454 281.593 174.53C281.24 173.598 280.715 172.893 280.018 172.416C279.328 171.932 278.477 171.69 277.464 171.69C276.452 171.69 275.597 171.932 274.899 172.416C274.209 172.893 273.685 173.598 273.325 174.53C272.973 175.454 272.797 176.592 272.797 177.942C272.797 179.293 272.973 180.434 273.325 181.366C273.685 182.291 274.209 182.995 274.899 183.48C275.597 183.957 276.452 184.195 277.464 184.195C278.477 184.195 279.328 183.957 280.018 183.48C280.715 182.995 281.24 182.291 281.593 181.366C281.952 180.434 282.132 179.293 282.132 177.942ZM299.935 189.215H291.261V166.67H299.847C302.167 166.67 304.17 167.121 305.858 168.024C307.553 168.919 308.86 170.211 309.777 171.899C310.702 173.579 311.164 175.594 311.164 177.942C311.164 180.291 310.705 182.309 309.788 183.997C308.871 185.678 307.572 186.969 305.891 187.872C304.21 188.767 302.225 189.215 299.935 189.215ZM297.381 184.019H299.715C300.831 184.019 301.781 183.839 302.566 183.48C303.359 183.12 303.961 182.5 304.372 181.619C304.79 180.739 304.999 179.513 304.999 177.942C304.999 176.372 304.787 175.146 304.361 174.266C303.943 173.385 303.326 172.765 302.511 172.405C301.704 172.045 300.713 171.866 299.539 171.866H297.381V184.019ZM313.996 189.215V166.67H330.245V171.601H320.117V175.476H329.408V180.408H320.117V184.283H330.201V189.215H313.996Z" fill="url(#paint2_linear_728_528)"/>
<path d="M132.421 189.419L92 189.607L94.1621 185.232L125.68 185.086L109.812 153.569L112.07 149L132.421 189.419Z" fill="url(#paint3_linear_728_528)"/>
<path d="M120.97 181.901H95.3574L97.2842 178.015L114.423 177.936L105.811 160.831L108.143 156.134L120.97 181.901Z" fill="url(#paint4_linear_728_528)"/>
</g>
<defs>
<filter id="filter0_d_728_528" x="18" y="23" width="370" height="429" filterUnits="userSpaceOnUse" color-interpolation-filters="sRGB">
<feFlood flood-opacity="0" result="BackgroundImageFix"/>
<feColorMatrix in="SourceAlpha" type="matrix" values="0 0 0 0 0 0 0 0 0 0 0 0 0 0 0 0 0 0 127 0" result="hardAlpha"/>
<feMorphology radius="4" operator="dilate" in="SourceAlpha" result="effect1_dropShadow_728_528"/>
<feOffset dx="-5"/>
<feGaussianBlur stdDeviation="4.5"/>
<feComposite in2="hardAlpha" operator="out"/>
<feColorMatrix type="matrix" values="0 0 0 0 0 0 0 0 0 0 0 0 0 0 0 0 0 0 0.25 0"/>
<feBlend mode="normal" in2="BackgroundImageFix" result="effect1_dropShadow_728_528"/>
<feBlend mode="normal" in="SourceGraphic" in2="effect1_dropShadow_728_528" result="shape"/>
</filter>
<linearGradient id="paint0_linear_728_528" x1="3.80263e-06" y1="29.5" x2="380" y2="409.5" gradientUnits="userSpaceOnUse">
<stop stop-color="#393939"/>
<stop offset="0.504808" stop-color="white"/>
<stop offset="1" stop-color="#9B9B9B"/>
</linearGradient>
<linearGradient id="paint1_linear_728_528" x1="207.687" y1="582.258" x2="207.687" y2="219.109" gradientUnits="userSpaceOnUse">
<stop stop-color="white"/>
<stop offset="1" stop-color="#4D4D4D"/>
</linearGradient>
<linearGradient id="paint2_linear_728_528" x1="342.999" y1="178.134" x2="132.234" y2="178.134" gradientUnits="userSpaceOnUse">
<stop stop-color="#393939"/>
<stop offset="0.504808" stop-color="white"/>
<stop offset="1" stop-color="#9B9B9B"/>
</linearGradient>
<linearGradient id="paint3_linear_728_528" x1="132.421" y1="169.304" x2="92" y2="169.304" gradientUnits="userSpaceOnUse">
<stop stop-color="#393939"/>
<stop offset="0.504808" stop-color="white"/>
<stop offset="1" stop-color="#9B9B9B"/>
</linearGradient>
<linearGradient id="paint4_linear_728_528" x1="120.97" y1="169.017" x2="95.3574" y2="169.017" gradientUnits="userSpaceOnUse">
<stop stop-color="#393939"/>
<stop offset="0.504808" stop-color="white"/>
<stop offset="1" stop-color="#9B9B9B"/>
</linearGradient>
<clipPath id="clip0_728_528">
<rect width="380" height="439" rx="9" fill="white"/>
</clipPath>
</defs>
</svg>
